<?xml version="1.0" encoding="UTF-8"?>
<svg id="Layer_2" xmlns="http://www.w3.org/2000/svg" viewBox="0 0 669.36 1041.85">
  <defs>
    <style>
      .cls-1 {
        fill: #f64786;
      }
    </style>
  </defs>
  <g id="Layer_1-2" data-name="Layer_1">
    <path class="cls-1" d="M37.14,400.39c-27.03,49.59-49.52,108.59-29.43,161.38,34.89,91.66,177.41,114.06,195.68,210.42,8.57,45.18-14.95,89.32-28.75,133.19-13.81,43.87-13.1,101.46,26.59,124.69,38.2,22.36,193.78,8.93,234.13-7.59,40.8-16.71,141.66-88.87,150.05-239.51,3.8-68.23-51.94-161.6,39.99-304.2,46.27-71.78,45.61-198.77,43-293.77-1.33-48.28-4.04-98.77-35.49-135.43-97.09-113.18-244.78-6.22-337.68,60.38C189.1,186.03,99.68,285.67,37.14,400.39Z"/>
  </g>
</svg>