<?xml version="1.0" standalone="no"?>
<!DOCTYPE svg PUBLIC "-//W3C//DTD SVG 20010904//EN"
 "http://www.w3.org/TR/2001/REC-SVG-20010904/DTD/svg10.dtd">
<svg version="1.0" xmlns="http://www.w3.org/2000/svg"
 width="1024.000000pt" height="1024.000000pt" viewBox="0 0 1024.000000 1024.000000"
 preserveAspectRatio="xMidYMid meet">
<metadata>
Created by potrace 1.14, written by Peter Selinger 2001-2017
</metadata>
<g transform="translate(0.000000,1024.000000) scale(0.100000,-0.100000)"
fill="#000000" stroke="none">
<path d="M134 9486 c-60 -28 -108 -83 -123 -140 -7 -29 -10 -988 -8 -3236 l2
-3195 24 -40 c36 -60 84 -96 147 -111 58 -12 936 -11 987 2 75 19 122 56 153
119 21 45 20 -22 27 1910 2 495 7 911 11 925 6 23 11 44 21 95 18 99 90 264
152 347 102 140 260 255 418 304 92 28 155 41 230 47 11 1 23 7 27 12 5 7 8 7
8 0 0 -8 71 -12 90 -4 3 1 9 1 14 0 5 -1 37 -4 70 -6 34 -2 63 -5 66 -6 6 -2
11 -3 73 -13 26 -5 50 -12 53 -17 3 -5 13 -9 22 -9 19 0 110 -36 162 -65 19
-11 37 -19 40 -20 3 0 32 -20 64 -44 70 -52 158 -139 183 -181 9 -17 21 -30
25 -30 4 0 8 -5 8 -10 0 -6 10 -27 23 -48 34 -55 87 -189 89 -229 1 -7 4 -13
8 -13 3 0 6 -8 6 -17 1 -10 4 -34 8 -53 16 -81 20 -144 20 -292 1 -87 4 -158
8 -158 4 0 5 -6 2 -14 -8 -21 -10 -187 -2 -192 4 -3 4 -12 1 -20 -8 -23 -9
-254 -1 -254 4 0 5 -6 2 -14 -8 -22 -10 -187 -1 -193 4 -2 4 -9 1 -15 -6 -9
-9 -737 -4 -763 1 -5 1 -12 0 -15 -6 -15 -4 -82 2 -86 5 -3 5 -10 2 -16 -6 -9
-9 -198 -4 -223 1 -5 1 -14 0 -20 -6 -29 -4 -255 3 -255 5 0 5 -5 2 -11 -9
-14 -12 -149 -4 -149 4 0 3 -15 -1 -34 -4 -19 -4 -40 1 -47 4 -7 6 -16 3 -20
-11 -18 28 -105 61 -136 67 -63 85 -66 345 -69 129 -2 243 -1 252 2 11 3 16
15 16 37 0 18 1 34 1 37 1 3 4 21 6 40 6 59 14 92 39 175 39 129 49 155 58
155 4 0 8 7 8 16 0 35 122 219 202 304 62 67 163 148 247 199 46 28 88 51 92
51 4 0 7 232 6 515 -1 283 2 515 6 515 5 0 5 5 1 11 -10 16 -11 469 -1 469 5
0 5 5 2 10 -4 6 -8 153 -10 328 -2 174 -6 328 -10 342 -3 14 -8 43 -10 65 -5
59 -24 159 -46 250 -72 282 -200 535 -367 724 -83 94 -184 186 -254 233 -27
17 -48 35 -48 40 0 4 -6 8 -14 8 -8 0 -21 6 -28 13 -15 14 -70 46 -148 84 -30
16 -57 30 -60 33 -3 3 -11 6 -18 8 -7 1 -32 11 -55 21 -50 23 -203 74 -267 89
-47 11 -101 24 -110 27 -3 0 -27 4 -53 9 -27 4 -59 9 -70 12 -118 23 -638 23
-676 0 -4 -3 -27 -7 -51 -11 -44 -6 -129 -26 -215 -49 -53 -14 -102 -31 -109
-38 -6 -4 -16 -8 -23 -8 -7 0 -42 -13 -78 -30 -36 -16 -70 -30 -74 -30 -5 0
-11 -3 -13 -7 -1 -5 -33 -24 -71 -42 -37 -19 -67 -39 -67 -43 0 -4 -4 -8 -10
-8 -9 0 -81 -46 -90 -58 -3 -4 -23 -21 -45 -37 -22 -16 -66 -55 -97 -87 l-58
-57 -2 1132 c-3 962 -5 1137 -17 1162 -25 52 -95 111 -145 124 -32 8 -191 11
-519 11 l-473 -1 -50 -23z"/>
<path d="M7378 7605 c-2 -2 -39 -7 -82 -10 -43 -3 -82 -7 -85 -9 -3 -2 -26 -7
-51 -10 -25 -3 -99 -20 -165 -37 -144 -36 -133 -33 -168 -47 -16 -7 -34 -12
-42 -12 -8 0 -16 -4 -19 -9 -3 -5 -17 -12 -32 -15 -27 -7 -225 -96 -234 -106
-3 -3 -21 -14 -40 -24 -193 -107 -418 -295 -575 -481 -27 -33 -53 -61 -57 -63
-5 -2 -8 -10 -8 -18 0 -8 -4 -14 -10 -14 -5 0 -10 -6 -10 -14 0 -8 -4 -16 -8
-18 -19 -7 -179 -260 -185 -291 -1 -7 -5 -14 -8 -17 -10 -9 -39 -73 -39 -87 0
-7 -3 -13 -8 -13 -6 0 -35 -68 -47 -110 -1 -3 -9 -21 -17 -40 -15 -32 -77
-225 -82 -253 -1 -7 -5 -21 -9 -32 -3 -11 -9 -32 -12 -47 -3 -16 -7 -38 -10
-50 -43 -199 -55 -311 -61 -585 -3 -149 -2 -223 6 -228 7 -4 7 -12 0 -26 -6
-11 -9 -23 -6 -27 2 -4 7 -34 11 -67 13 -129 28 -222 50 -322 9 -37 18 -79 21
-93 2 -14 10 -41 16 -60 6 -19 11 -37 11 -40 0 -3 13 -43 29 -90 16 -47 31
-89 32 -95 4 -15 17 -46 39 -95 12 -25 21 -47 21 -50 2 -13 102 -205 109 -208
4 -2 7 -9 7 -16 0 -6 7 -21 15 -31 13 -17 102 -150 130 -194 6 -9 12 -18 15
-21 3 -3 34 -39 68 -81 92 -110 253 -264 345 -329 26 -18 47 -37 47 -41 0 -4
10 -11 23 -15 12 -4 24 -10 27 -13 8 -10 89 -61 97 -61 4 0 17 -9 29 -21 12
-11 28 -21 36 -23 8 -1 26 -8 39 -17 29 -18 185 -89 229 -104 3 -1 13 -5 23
-8 37 -15 52 -20 62 -23 6 -1 57 -16 114 -33 57 -17 107 -28 112 -26 4 3 10 1
14 -5 4 -6 10 -8 15 -5 5 3 19 1 33 -4 28 -11 160 -28 277 -35 30 -2 60 -5 65
-6 6 -1 15 -1 20 0 27 6 51 4 57 -5 5 -7 8 -7 8 0 0 11 50 12 67 2 6 -4 13 -3
17 0 4 4 39 8 79 10 78 3 296 38 352 56 11 3 31 8 45 11 80 14 341 129 427
187 23 16 46 29 52 29 5 0 15 8 20 18 6 9 11 14 11 9 0 -13 130 94 225 185 49
49 90 88 90 88 0 0 -1 -53 -2 -117 -1 -117 -9 -255 -17 -303 -6 -31 -14 -76
-23 -115 -4 -16 -8 -35 -9 -42 -3 -19 -36 -117 -43 -128 -3 -5 -7 -19 -8 -30
-2 -10 -9 -23 -16 -27 -6 -4 -9 -8 -5 -8 4 0 -4 -21 -19 -48 -14 -26 -31 -56
-37 -67 -44 -80 -162 -215 -251 -288 -48 -38 -135 -98 -135 -91 0 3 -12 -3
-27 -14 -47 -33 -188 -93 -197 -84 -3 3 -6 1 -6 -5 0 -6 -12 -13 -27 -16 -16
-3 -55 -13 -88 -22 -33 -8 -69 -17 -80 -19 -11 -2 -36 -6 -55 -10 -81 -15
-260 -20 -375 -10 -100 9 -140 13 -142 15 -2 1 -11 2 -20 3 -53 5 -230 55
-313 89 -101 40 -304 155 -330 187 -14 16 -96 70 -107 70 -7 0 -13 4 -13 10 0
5 -3 9 -7 9 -5 -1 -10 0 -13 1 -19 7 -51 11 -91 12 -50 1 -142 -41 -163 -74
-6 -10 -15 -18 -21 -18 -5 0 -32 -21 -60 -46 -67 -60 -81 -72 -145 -124 -30
-25 -57 -48 -60 -51 -3 -3 -34 -30 -70 -60 -87 -72 -111 -92 -124 -105 -20
-20 -64 -79 -67 -89 -1 -5 -8 -23 -14 -40 -30 -75 6 -155 111 -245 105 -90
142 -120 147 -120 7 0 36 -23 62 -47 8 -7 16 -13 19 -13 2 0 31 -18 64 -39
147 -98 376 -209 547 -265 28 -9 53 -16 58 -16 4 0 21 -7 37 -15 17 -9 30 -13
30 -11 0 3 12 1 27 -5 15 -6 57 -17 93 -25 36 -8 74 -16 85 -19 62 -14 96 -21
160 -30 184 -26 247 -30 505 -30 287 1 371 8 620 50 19 3 71 14 115 25 44 10
91 21 105 23 34 7 289 91 337 112 94 41 303 149 303 157 0 4 5 8 11 8 12 0
119 67 129 81 3 3 19 15 35 25 90 56 299 257 403 389 43 54 92 126 92 135 0 5
3 10 8 10 4 0 16 17 27 37 11 21 32 57 48 81 15 23 26 42 23 42 -3 0 8 23 24
50 17 28 30 57 30 65 0 8 5 15 11 15 5 0 8 4 5 8 -3 5 3 24 13 43 20 36 97
265 105 309 3 14 5 25 6 25 1 0 4 11 6 25 3 14 9 41 14 60 13 50 39 216 48
307 4 43 7 1086 7 2318 l0 2240 -22 42 c-13 23 -37 52 -55 65 -76 55 -55 53
-573 53 l-482 0 -55 -37 c-41 -27 -62 -50 -79 -85 -22 -45 -23 -60 -24 -220
l0 -173 -78 78 c-124 122 -172 162 -276 230 -68 45 -281 155 -281 145 0 -3 -6
-1 -12 4 -10 8 -127 51 -158 58 -3 1 -23 5 -45 10 -44 10 -41 9 -75 18 -43 12
-113 24 -185 33 -55 7 -451 14 -457 9z m532 -1200 c67 -9 105 -15 130 -21 14
-3 34 -7 45 -9 34 -5 137 -45 211 -81 39 -19 76 -34 82 -34 5 0 12 -4 14 -8 2
-5 30 -26 62 -47 62 -41 200 -172 251 -239 96 -125 201 -358 221 -491 3 -22 8
-43 11 -48 2 -4 6 -26 8 -50 3 -23 7 -69 10 -102 13 -128 0 -341 -27 -440 -5
-22 -12 -49 -14 -60 -18 -95 -109 -298 -177 -393 -67 -95 -195 -228 -248 -259
-16 -10 -29 -21 -29 -25 0 -4 -6 -8 -14 -8 -8 0 -16 -3 -18 -7 -7 -17 -205
-117 -253 -128 -5 -2 -36 -10 -67 -19 -31 -10 -70 -19 -85 -22 -15 -3 -35 -7
-43 -9 -27 -8 -164 -18 -230 -18 -120 0 -225 13 -325 40 -33 8 -72 18 -87 20
-16 3 -28 10 -28 16 0 6 -3 8 -6 4 -14 -14 -221 97 -313 169 -100 79 -264 283
-292 364 -6 16 -15 30 -20 30 -5 0 -9 7 -9 15 0 8 -4 23 -9 33 -25 50 -66 169
-75 222 -2 14 -7 36 -10 50 -7 30 -17 93 -22 140 -6 53 -5 290 1 330 3 19 7
51 9 71 6 59 44 199 76 282 75 196 202 372 355 493 28 21 53 44 57 49 4 6 8 6
8 2 0 -4 15 3 33 17 19 15 39 26 45 26 7 0 12 5 12 10 0 6 3 9 8 8 4 -1 36 12
72 29 69 33 182 70 239 79 18 3 43 8 55 10 11 3 55 8 96 11 41 3 76 6 78 8 4
3 172 -4 212 -10z"/>
<path d="M5037 3504 c-1 -1 -28 -4 -60 -8 -32 -3 -66 -10 -75 -15 -9 -5 -20
-9 -25 -10 -54 -6 -156 -54 -247 -117 -87 -61 -212 -211 -234 -281 -4 -13 -12
-23 -18 -23 -6 0 -9 -3 -5 -6 3 -3 -3 -26 -13 -50 -11 -24 -17 -44 -14 -44 2
0 0 -9 -5 -19 -22 -41 -36 -304 -18 -328 5 -7 7 -13 4 -13 -3 0 -1 -15 4 -32
5 -18 12 -46 15 -63 3 -16 9 -34 13 -40 5 -5 16 -31 26 -57 10 -27 22 -48 26
-48 5 0 9 -6 9 -14 0 -35 143 -192 231 -254 39 -27 172 -92 188 -92 10 0 21
-4 27 -9 15 -15 81 -23 210 -27 104 -3 133 0 214 22 84 22 212 80 255 116 99
80 140 124 189 198 46 69 97 172 102 205 2 11 9 46 17 77 15 62 19 234 6 283
-4 16 -10 44 -12 60 -7 47 -63 174 -104 237 -35 53 -114 141 -159 178 -72 59
-237 146 -255 135 -5 -4 -9 -1 -9 4 0 6 -3 10 -7 9 -5 -1 -21 1 -38 5 -61 15
-228 29 -238 21z"/>
</g>
</svg>
