<?xml version="1.0" encoding="UTF-8"?>
<svg xmlns="http://www.w3.org/2000/svg" version="1.1" viewBox="0 0 500 500">
  <defs>
    <style>
      .cls-1 {
        fill: #e0e0e0;
      }

      .cls-2, .cls-3, .cls-4, .cls-5, .cls-6, .cls-7, .cls-8, .cls-9, .cls-10, .cls-11, .cls-12, .cls-13, .cls-14, .cls-15, .cls-16, .cls-17, .cls-18, .cls-19, .cls-20, .cls-21, .cls-22 {
        isolation: isolate;
      }

      .cls-2, .cls-18 {
        opacity: .2;
      }

      .cls-3, .cls-17 {
        opacity: .3;
      }

      .cls-4, .cls-9, .cls-16 {
        opacity: .1;
      }

      .cls-5, .cls-8 {
        opacity: .2;
      }

      .cls-6, .cls-11, .cls-19 {
        opacity: .2;
      }

      .cls-23 {
        fill: #faedfa;
      }

      .cls-24 {
        fill: #37474f;
      }

      .cls-7 {
        fill: #f0f0f0;
      }

      .cls-7, .cls-12 {
        opacity: .7;
      }

      .cls-25 {
        fill: #263238;
      }

      .cls-26, .cls-8, .cls-9, .cls-10, .cls-11 {
        fill: #ba68c8;
      }

      .cls-27 {
        fill: #f28f8f;
      }

      .cls-28, .cls-12, .cls-13, .cls-14, .cls-15, .cls-16, .cls-17, .cls-18, .cls-19, .cls-20, .cls-21, .cls-22 {
        fill: #fff;
      }

      .cls-10, .cls-21 {
        opacity: .6;
      }

      .cls-29 {
        fill: #ffa8a7;
      }

      .cls-30 {
        fill: #455a64;
      }

      .cls-13 {
        opacity: .9;
      }

      .cls-14 {
        opacity: .9;
      }

      .cls-15 {
        opacity: .8;
      }

      .cls-20 {
        opacity: .3;
      }

      .cls-22 {
        opacity: .5;
      }
    </style>
  </defs>
  <!-- Generator: Adobe Illustrator 28.7.0, SVG Export Plug-In . SVG Version: 1.2.0 Build 17)  -->
  <g>
    <g id="Layer_1">
      <g id="freepik--Floor--inject-490">
        <g id="freepik--floor--inject-490">
          <ellipse id="freepik--floor--inject-490-2" data-name="freepik--floor--inject-490" class="cls-7" cx="250" cy="344.1" rx="228.5" ry="132"/>
        </g>
      </g>
      <g id="freepik--Shadows--inject-490">
        <ellipse id="freepik--Shadow--inject-490" class="cls-1" cx="371.8" cy="393.1" rx="55.8" ry="32.2"/>
        <path id="freepik--shadow--inject-490" class="cls-1" d="M442.9,396.2l13.1-7.6c.7-.2,1-.9.8-1.6-.1-.4-.4-.7-.8-.8l-43.2-25c-1.3-.7-2.9-.7-4.2,0l-13.1,7.6c-.7.2-1,1-.8,1.6.1.4.4.7.8.8l43.2,25c1.3.7,2.9.7,4.2,0Z"/>
        <path id="freepik--shadow--inject-490-2" data-name="freepik--shadow--inject-490" class="cls-1" d="M154.3,411l-118.4-68.4c-4.5-2.6-4.5-6.9,0-9.4l179.8-103.8c2.1-1.1,4.6-1.1,6.7,0l125.6,72.5c.3.1.5.4.4.8,0,.2-.2.3-.4.4l-187,108c-2.1,1.1-4.6,1.1-6.7,0Z"/>
      </g>
      <g id="freepik--Device--inject-490">
        <g id="freepik--Laptop--inject-490">
          <path class="cls-24" d="M50.1,337.8c.2,3.1,1.9,5.9,4.6,7.6l99.4,57.4c2.9,1.4,6.3,1.4,9.1,0l175-101c4.2-2.2,5.8-7.4,3.6-11.6-.8-1.5-2-2.8-3.6-3.6l-99.4-57.4c-2.9-1.5-6.3-1.5-9.1,0l-175,101c-2.6,1.7-4.3,4.5-4.6,7.6Z"/>
          <path class="cls-30" d="M54.7,335.5l99.4,57.4c2.9,1.5,6.3,1.5,9.1,0l175-101c2.5-1.5,2.5-3.8,0-5.3l-99.4-57.4c-2.9-1.5-6.3-1.5-9.1,0l-175,101c-2.5,1.5-2.5,3.8,0,5.3Z"/>
          <path class="cls-25" d="M158.6,394v9.9c-1.6,0-3.2-.3-4.6-1.1l-99.4-57.4c-4.2-2.2-5.8-7.4-3.6-11.6.7-1.4,1.8-2.5,3.1-3.3-2,1.5-1.9,3.6.5,5l99.4,57.4c1.4.7,3,1.1,4.6,1.1Z"/>
          <path class="cls-24" d="M45.9,330.4c-2.4-1.4-2.2-3.7-2.2-6.6v-137.2c.2-3.2,1.9-6.2,4.6-7.9l174.9-101c2.8-1.5,6-1.5,8.9-.2,2.4,1.4,2.2,3.7,2.2,6.6v137.2c-.2,3.2-1.9,6.2-4.6,7.9l-175,101c-2.8,1.5-6,1.5-8.8.2Z"/>
          <path class="cls-30" d="M234.2,84.1c0-2.9-2-4.1-4.6-2.6L54.7,182.5c-1.3.8-2.5,2-3.2,3.4l-6.5-3.8h0c.8-1.4,1.9-2.6,3.2-3.4l174.9-101c2.8-1.5,6-1.5,8.8-.2,2.3,1.4,2.2,3.7,2.2,6.6Z"/>
          <path class="cls-25" d="M54.2,330.5c-2.6,1.2-5.7,1.2-8.3-.1-2.4-1.4-2.2-3.7-2.2-6.6v-137.2c0-1.6.5-3.1,1.4-4.5l6.5,3.8h0c-.8,1.4-1.3,2.9-1.3,4.5v137.2c0,2.7,1.7,3.9,4,2.9Z"/>
          <path class="cls-23" d="M57.2,187.8l168.7-97.4c1.5-.9,2.7-.2,2.7,1.6v119.8c-.1,1.9-1.1,3.7-2.7,4.7l-168.7,97.3c-1.5.9-2.7.2-2.7-1.6v-119.8c0-1.9,1.1-3.7,2.7-4.7Z"/>
          <path class="cls-25" d="M67.3,330.5l162.4-93.8c1.4-.7,3.1-.7,4.6,0l2.7,1.5c.7.2,1.1,1,.9,1.8-.1.4-.5.7-.9.9l-162.4,93.7c-1.4.7-3.1.7-4.6,0l-2.7-1.5c-.7-.2-1.1-1-.9-1.8.1-.4.5-.7.9-.9Z"/>
          <path class="cls-25" d="M80.1,338.1l162.4-93.8c1.3-.7,2.8-.8,4.2-.2l42.3,24.4c1,.6.9,1.7-.4,2.4l-162.2,93.6c-1.3.7-2.8.8-4.2.2l-42.4-24.3c-1.1-.6-.9-1.7.4-2.4Z"/>
          <path class="cls-30" d="M220.8,283.7l5.1-2.9c.2-.1.2-.3,0-.4l-4.9-2.8c-.2-.1-.5-.1-.7,0l-5.1,2.9c-.2.1-.2.3,0,.4l4.9,2.8c.2.1.5.1.8,0ZM213.4,273.6l-5.1,2.9c-.2.1-.2.3,0,.4l4.9,2.8c.2.1.5.1.7,0l5.1-2.9c.2-.1.2-.3,0-.4l-4.9-2.8c-.2-.1-.5-.1-.8,0ZM196.9,283l-8.6,5c-.2.1-.2.3,0,.4l4.9,2.8c.2.1.5.1.7,0l8.6-5c.2-.1.2-.3,0-.4l-4.9-2.9c-.2-.1-.5,0-.7,0h0ZM205.9,277.8l-5.1,2.9c-.2.1-.2.3,0,.4l4.9,2.8c.2.1.5.1.7,0l5.1-2.9c.2-.1.2-.3,0-.4l-4.9-2.8c-.2-.1-.5-.1-.8,0h0ZM186,289.4l-5.1,2.9c-.2.1-.2.3,0,.4l4.9,2.8c.2.1.5.1.7,0l5.1-2.9c.2-.1.2-.3,0-.4l-4.9-2.8c-.2-.1-.5-.1-.7,0ZM178.6,293.7l-5.1,2.9c-.2.1-.2.3,0,.4l4.9,2.8c.2.1.5.1.7,0l5.1-2.9c.2-.1.2-.3,0-.4l-4.9-2.8c-.2-.1-.5-.1-.8,0h0ZM197.6,305.1l5.1-2.9c.2-.1.2-.3,0-.4l-4.9-2.8c-.2-.1-.5-.1-.7,0l-5.1,2.9c-.2.1-.2.3,0,.4l4.9,2.8c.2,0,.5,0,.7,0h0ZM190.2,309.4l5.1-2.9c.2-.1.2-.3,0-.4l-4.9-2.8c-.2-.1-.5-.1-.7,0l-5.1,2.9c-.2.1-.2.3,0,.4l4.9,2.8c.2,0,.5,0,.7,0h0ZM182.8,313.7l5.1-2.9c.2-.1.2-.3,0-.4l-4.9-2.8c-.2-.1-.5-.1-.7,0l-5.1,2.9c-.2.1-.2.3,0,.4l4.9,2.8c.2.1.5.1.7,0h0ZM175.3,318l5.1-2.9c.2-.1.2-.3,0-.4l-4.9-2.8c-.2-.1-.5-.1-.7,0l-5.1,2.9c-.2.1-.2.3,0,.4l4.9,2.8c.2.1.5.1.8,0ZM213.3,288l5.1-2.9c.2-.1.2-.3,0-.4l-4.9-2.8c-.2-.1-.5-.1-.7,0l-5.1,2.9c-.2.1-.2.3,0,.4l4.9,2.8c.2.1.5.1.8,0h0ZM205,300.8l11.3-6.5c.2-.1.2-.3,0-.4l-11.8-6.9c-.2-.1-.5-.1-.7,0l-5.9,3.5c-.2.1-.2.3,0,.4l6.2,3.6c.2.1.2.3,0,.4l-4.7,2.7c-.2.1-.2.3,0,.4l4.9,2.8c.2,0,.4,0,.6,0ZM171.1,298l-5.1,2.9c-.2.1-.2.3,0,.4l4.9,2.8c.2.1.5.1.7,0l5.1-2.9c.2-.1.2-.3,0-.4l-4.9-2.8c-.2-.1-.5,0-.8,0ZM163.7,302.3l-5.1,2.9c-.2.1-.2.3,0,.4l4.9,2.8c.2.1.5.1.7,0l5.1-2.9c.2-.1.2-.3,0-.4l-4.9-2.8c-.2-.1-.5-.1-.7,0h0ZM122.6,348.1c.2.1.5.1.7,0l5.1-2.9c.2-.1.2-.3,0-.4l-4.9-2.8c-.2-.1-.5-.1-.7,0l-5.1,2.9c-.2.1-.2.3,0,.4l4.9,2.8ZM104.2,336.6l-5.1,2.9c-.2.1-.2.3,0,.4l4.9,2.8c.2.1.5.1.7,0l5.1-2.9c.2-.1.2-.3,0-.4l-4.8-2.9c-.2-.1-.5-.1-.8,0h0ZM113.7,345.2c.2.1.5.1.7,0l5.1-2.9c.2-.1.2-.3,0-.4l-4.8-2.9c-.2-.1-.5-.1-.7,0l-5.1,2.9c-.2.1-.2.3,0,.4l4.8,2.8ZM134.2,349.8l5.1-2.9c.2-.1.2-.3,0-.4l-4.9-2.8c-.2-.1-.5-.1-.7,0l-5.1,2.9c-.2.1-.2.3,0,.4l4.9,2.8c.2.1.5,0,.7,0h0ZM126,354.1c.2.1.5.1.7,0l5.1-2.9c.2-.1.2-.3,0-.4l-4.9-2.8c-.2-.1-.5-.1-.7,0l-5.1,2.9c-.2.1-.2.3,0,.4l4.8,2.8ZM111.7,332.3l-5.1,2.9c-.2.1-.2.3,0,.4l4.9,2.8c.2.1.5.1.7,0l5.1-2.9c.2-.1.2-.3,0-.4l-4.9-2.8c-.2-.1-.5-.1-.8,0h0ZM148.8,310.8l-5.1,2.9c-.2.1-.2.3,0,.4l4.9,2.8c.2.1.5.1.7,0l5.1-2.9c.2-.1.2-.3,0-.4l-4.9-2.8c-.2-.1-.5-.1-.7,0h0ZM119.1,328l-5.1,2.9c-.2.1-.2.3,0,.4l4.9,2.8c.2.1.5.1.7,0l5.1-2.9c.2-.1.2-.3,0-.4l-4.9-2.8c-.2-.1-.5,0-.7,0ZM156.2,306.5l-5.1,2.9c-.2.1-.2.3,0,.4l4.8,2.8c.2.1.5.1.7,0l5.1-2.9c.2-.1.2-.3,0-.4l-4.9-2.8c-.2-.1-.5,0-.8,0h0ZM141.4,315.1l-5.1,2.9c-.2.1-.2.3,0,.4l4.9,2.8c.2.1.5.1.7,0l5.1-2.9c.2-.1.2-.3,0-.4l-4.9-2.8c-.2-.1-.5-.1-.7,0h0ZM134,319.4l-5.1,2.9c-.2.1-.2.3,0,.4l4.9,2.8c.2.1.5.1.7,0l5.1-2.9c.2-.1.2-.3,0-.4l-4.9-2.8c-.2-.1-.5-.1-.7,0ZM126.6,323.7l-5.1,2.9c-.2.1-.2.3,0,.4l4.9,2.8c.2.1.5.1.7,0l5.1-2.9c.2-.1.2-.3,0-.4l-4.9-2.8c-.2-.1-.5-.1-.8,0h0ZM160.5,326.6l5.1-2.9c.2-.1.2-.3,0-.4l-4.9-2.8c-.2-.1-.5-.1-.7,0l-5.1,2.9c-.2.1-.2.3,0,.4l4.9,2.8c.2.1.5.1.7,0h0ZM229.8,264.1l-5.1,2.9c-.2.1-.2.3,0,.4l4.9,2.8c.2.1.5.1.7,0l5.1-2.9c.2-.1.2-.3,0-.4l-4.9-2.8c-.2-.1-.5-.1-.7,0h0ZM220.8,269.3l-5.1,2.9c-.2.1-.2.3,0,.4l4.9,2.8c.2.1.5.1.7,0l5.1-2.9c.2-.1.2-.3,0-.4l-4.9-2.8c-.2-.1-.5-.1-.8,0h0ZM237.2,259.8l-5.1,2.9c-.2.1-.2.3,0,.4l4.8,2.9c.2.1.5.1.7,0l5.1-2.9c.2-.1.2-.3,0-.4l-4.8-2.9c-.3-.1-.5-.1-.8,0h0ZM196.1,298l5.1-2.9c.2-.1.2-.3,0-.4l-4.9-2.8c-.2-.1-.5-.1-.7,0l-5.1,2.9c-.2.1-.2.3,0,.4l4.9,2.8c.2.1.5.1.7,0ZM245.4,255.5c-.2-.1-.5-.1-.7,0l-5.1,2.9c-.2.1-.2.3,0,.4l4.9,2.8c.2.1.5.1.7,0l5.1-2.9c.2-.1.2-.3,0-.4l-4.8-2.8ZM167.9,322.3l5.1-2.9c.2-.1.2-.3,0-.4l-4.9-2.8c-.2-.1-.5-.1-.7,0l-5.1,2.9c-.2.1-.2.3,0,.4l4.9,2.8c.3.1.5,0,.8,0h0ZM259,269.7l5.1-2.9c.2-.1.2-.3,0-.4l-4.9-2.8c-.2-.1-.5-.1-.7,0l-5.1,2.9c-.2.1-.2.3,0,.4l4.9,2.8c.2.1.5.1.7,0ZM244.6,270l5.1-2.9c.2-.1.2-.3,0-.4l-4.9-2.8c-.2-.1-.5-.1-.7,0l-5.1,2.9c-.2.1-.2.3,0,.4l4.9,2.9c.2.1.5.1.7,0h0ZM252.3,259.5c-.2-.1-.5-.1-.7,0l-5.1,2.9c-.2.1-.2.3,0,.4l4.9,2.8c.2.1.5.1.7,0l5.1-2.9c.2-.1.2-.3,0-.4l-4.9-2.8ZM253.9,258.6l11.8,6.8c.2.1.5.1.7,0l5.1-2.9c.2-.1.2-.3,0-.4l-11.8-6.8c-.2-.1-.5-.1-.7,0l-5.1,2.9c-.2.1-.2.3,0,.4h0ZM236.7,268.1l-5.1,2.9c-.2.1-.2.3,0,.4l4.9,2.8c.2.1.5.1.7,0l5.1-2.9c.2-.1.2-.3,0-.4l-4.9-2.8c-.2-.1-.5,0-.7,0h0ZM180.8,300.4l-5.1,2.9c-.2.1-.2.3,0,.4l4.9,2.8c.2.1.5.1.7,0l5.1-2.9c.2-.1.2-.3,0-.4l-4.9-2.8c-.2-.1-.5-.1-.7,0ZM250.8,274c.2.1.5.1.7,0l5.1-2.9c.2-.1.2-.3,0-.4l-4.9-2.8c-.2-.1-.5-.1-.7,0l-5,2.9c-.2.1-.2.3,0,.4l4.8,2.8ZM188.2,296.1l-5,2.9c-.2.1-.2.3,0,.4l4.9,2.8c.2.1.5.1.7,0l5.1-2.9c.2-.1.2-.3,0-.4l-4.9-2.8c-.2,0-.5,0-.7,0h0ZM130,343.8c.2.1.5.1.7,0l5.1-2.9c.2-.1.2-.3,0-.4l-4.8-2.8c-.2-.1-.5-.1-.7,0l-5.1,2.9c-.2.1-.2.3,0,.4l4.8,2.8ZM121.4,334.7l-5.1,2.9c-.2.1-.2.3,0,.4l4.9,2.8c.2.1.5.1.7,0l5.1-2.9c.2-.1.2-.3,0-.4l-4.9-2.8c-.2-.1-.5-.1-.7,0h0ZM138.2,339.4l5.1-2.9c.2-.1.2-.3,0-.4l-4.9-2.8c-.2-.1-.5-.1-.7,0l-5.1,2.9c-.2.1-.2.3,0,.4l4.9,2.8c.2.1.5.1.7,0h0ZM145.6,335.1l5.1-2.9c.2-.1.2-.3,0-.4l-4.8-2.8c-.2-.1-.5-.1-.7,0l-5.1,2.9c-.2.1-.2.3,0,.4l4.9,2.8c.2.1.5,0,.7,0h0ZM153,330.9l5.1-2.9c.2-.1.2-.3,0-.4l-4.9-2.8c-.2-.1-.5-.1-.7,0l-5.1,2.9c-.2.1-.2.3,0,.4l4.9,2.8c.2.1.5.1.7,0h0ZM128.8,330.4l-5.1,2.9c-.2.1-.2.3,0,.4l4.9,2.8c.2.1.5.1.7,0l5.1-2.9c.2-.1.2-.3,0-.4l-4.9-2.8c-.2-.1-.5-.1-.7,0h0ZM136.2,326.1l-5.1,2.9c-.2.1-.2.3,0,.4l4.9,2.8c.2.1.5.1.7,0l5.1-2.9c.2-.1.2-.3,0-.4l-4.8-2.8c-.2-.1-.5-.1-.8,0h0ZM165.9,309l-5.1,2.9c-.2.1-.2.3,0,.4l4.9,2.8c.2.1.5.1.7,0l5.1-2.9c.2-.1.2-.3,0-.4l-4.9-2.8c-.2-.1-.5-.1-.7,0ZM158.5,313.3l-5.1,2.9c-.2.1-.2.3,0,.4l4.9,2.8c.2.1.5.1.7,0l5.1-2.9c.2-.1.2-.3,0-.4l-4.9-2.8c-.2-.1-.5-.1-.7,0h0ZM173.4,304.7l-5.1,2.9c-.2.1-.2.3,0,.4l4.9,2.8c.2.1.5.1.7,0l5.1-2.9c.2-.1.2-.3,0-.4l-4.9-2.8c-.2-.1-.5-.1-.8,0h0ZM143.7,321.9l-5.1,2.9c-.2.1-.2.3,0,.4l4.9,2.8c.2.1.5.1.7,0l5.1-2.9c.2-.1.2-.3,0-.4l-4.9-2.8c-.2-.1-.5-.1-.7,0h0ZM151.1,317.6l-5.1,2.9c-.2.1-.2.3,0,.4l4.9,2.8c.2.1.5.1.7,0l5.1-2.9c.2-.1.2-.3,0-.4l-4.9-2.8c-.2-.1-.5-.1-.8,0h0ZM141.6,345.5l5.1-2.9c.2-.1.2-.3,0-.4l-4.9-2.8c-.2-.1-.5-.1-.7,0l-5.1,2.9c-.2.1-.2.3,0,.4l4.9,2.8c.2.1.5,0,.7,0h0ZM102.4,343.7l-4.9-2.8c-.2-.1-.5-.1-.7,0l-5.1,2.9c-.2.1-.2.3,0,.4l4.8,2.8c.2.1.5.1.7,0l5.1-2.9c.2-.1.2-.3,0-.4h0ZM112.1,346.1l-4.9-2.8c-.2-.1-.5-.1-.7,0l-7.8,4.5c-.2.1-.2.3,0,.4l4.9,2.8c.2.1.5.1.7,0l7.8-4.5c.2-.2.2-.4,0-.5h0ZM95.1,338.1l-4.9-2.8c-.2-.1-.5-.1-.7,0l-6.2,3.6c-.2.1-.2.3,0,.4l4.9,2.8c.2.1.5.1.7,0l6.2-3.6c.2-.1.2-.3,0-.4h0ZM99.9,335.3c.2.1.5.1.7,0l5.1-2.9c.2-.1.2-.3,0-.4l-4.8-2.9c-.2-.1-.5-.1-.7,0l-5.1,2.9c-.2.1-.2.3,0,.4l4.8,2.9ZM121,349l-4.9-2.8c-.2-.1-.5-.1-.7,0l-9.8,5.6c-.2.1-.2.3,0,.4l4.9,2.8c.2.1.5.1.7,0l9.8-5.6c.2-.2.2-.4,0-.4ZM124.4,355l-4.9-2.8c-.2-.1-.5-.1-.7,0l-6.2,3.6c-.2.1-.2.3,0,.4l4.9,2.8c.2.1.5.1.7,0l6.2-3.6c.2-.1.2-.3,0-.4ZM155.2,303.4c.2.1.5.1.7,0l5.1-2.9c.2-.1.2-.3,0-.4l-4.9-2.8c-.2-.1-.5-.1-.7,0l-5.1,2.9c-.2.1-.2.3,0,.4l4.9,2.8ZM140.3,312c.2.1.5.1.7,0l5.1-2.9c.2-.1.2-.3,0-.4l-4.9-2.8c-.2-.1-.5-.1-.7,0l-5.1,2.9c-.2.1-.2.3,0,.4l4.9,2.8ZM107.3,331c.2.1.5.1.7,0l5.1-2.9c.2-.1.2-.3,0-.4l-4.9-2.8c-.2-.1-.5-.1-.7,0l-5.1,2.9c-.2.1-.2.3,0,.4l4.9,2.8ZM147.7,307.7c.2.1.5.1.7,0l5.1-2.9c.2-.1.2-.3,0-.4l-4.9-2.8c-.2-.1-.5-.1-.7,0l-5.1,2.9c-.2.1-.2.3,0,.4l4.9,2.8ZM132.9,316.3c.2.1.5.1.7,0l5.1-2.9c.2-.1.2-.3,0-.4l-4.9-2.8c-.2-.1-.5-.1-.7,0l-5.1,2.9c-.2.1-.2.3,0,.4l4.8,2.8ZM128,355.3c-.2-.1-.5-.1-.7,0l-7.8,4.5c-.2.1-.2.3,0,.4l4.9,2.8c.2.1.5.1.7,0l7.8-4.5c.2-.1.2-.3,0-.4l-4.9-2.8ZM122.2,322.4c.2.1.5.1.7,0l5.1-2.9c.2-.1.2-.3,0-.4l-4.9-2.8c-.2-.1-.5-.1-.7,0l-5.1,2.9c-.2.1-.2.3,0,.4l4.9,2.8ZM114.8,326.7c.2.1.5.1.7,0l5.1-2.9c.2-.1.2-.3,0-.4l-4.9-2.8c-.2-.1-.5-.1-.7,0l-5,3c-.2.1-.2.3,0,.4l4.8,2.8ZM265.7,275.8c-.2-.1-.5-.1-.7,0l-12.5,7.2c-.2.1-.2.3,0,.4l4.9,2.8c.2.1.5.1.7,0l12.5-7.2c.2-.1.2-.3,0-.4l-4.9-2.8ZM249.3,285.3c-.2-.1-.5-.1-.7,0l-5.1,2.9c-.2.1-.2.3,0,.4l4.9,2.8c.2.1.5.1.7,0l5.1-2.9c.2-.1.2-.3,0-.4l-4.8-2.8ZM149,341.2l5.1-2.9c.2-.1.2-.3,0-.4l-4.8-2.8c-.2-.1-.5-.1-.7,0l-5.1,3c-.2.1-.2.3,0,.4l4.9,2.8c.2,0,.5,0,.7,0ZM234.4,293.9c-.2-.1-.5-.1-.7,0l-5.1,2.9c-.2.1-.2.3,0,.4l4.9,2.8c.2.1.5.1.7,0l5.1-2.9c.2-.1.2-.3,0-.4l-4.9-2.8ZM273.2,271.5c-.2-.1-.5-.1-.7,0l-5.1,2.9c-.2.1-.2.3,0,.4l4.9,2.8c.2.1.5.1.7,0l5.1-2.9c.2-.1.2-.3,0-.4l-4.9-2.8ZM285.5,270l-11.8-6.8c-.2-.1-.5-.1-.7,0l-5.1,2.9c-.2.1-.2.3,0,.4l11.8,6.8c.2.1.5.1.7,0l5.1-2.9c.2-.1.2-.3,0-.4ZM206.7,309.9c-.2-.1-.5-.1-.7,0l-6.3,3.6c-.2.1-.2.3,0,.4l4.9,2.8c.2.1.5.1.7,0l6.3-3.6c.2-.1.2-.3,0-.4l-4.9-2.8ZM225.5,299c-.2-.1-.5-.1-.7,0l-7.8,4.5c-.2.1-.2.3,0,.4l4.9,2.8c.2.1.5.1.7,0l7.8-4.5c.2-.1.2-.3,0-.4l-4.9-2.8ZM189.5,319.8c-.2-.1-.5-.1-.7,0l-41.8,24.2c-.2.1-.2.3,0,.4l4.9,2.8c.2.1.5.1.7,0l41.8-24.2c.2-.1.2-.3,0-.4l-4.9-2.8ZM145.3,345.3c-.2-.1-.5-.1-.7,0l-6.2,3.7c-.2.1-.2.3,0,.4l4.9,2.8c.2.1.5.1.7,0l6.3-3.6c.2-.1.2-.3,0-.4l-4.9-2.9ZM198.1,314.8c-.2-.1-.5-.1-.7,0l-6.3,3.6c-.2.1-.2.3,0,.4l4.9,2.8c.2.1.5.1.7,0l6.2-3.6c.2-.1.2-.3,0-.4l-4.8-2.8ZM136.7,350.3c-.2-.1-.5-.1-.7,0l-6.2,3.7c-.2.1-.2.3,0,.4l4.9,2.8c.2.1.5.1.7,0l6.3-3.6c.2-.1.2-.3,0-.4l-4.9-2.9ZM215.3,304.9c-.2-.1-.5-.1-.7,0l-6.2,3.6c-.2.1-.2.3,0,.4l4.9,2.8c.2.1.5.1.7,0l6.3-3.6c.2-.1.2-.3,0-.4l-4.8-2.8ZM241.9,289.5c-.2-.1-.5-.1-.7,0l-5.1,2.9c-.2.1-.2.3,0,.4l4.9,2.8c.2.1.5.1.7,0l5.1-2.9c.2-.1.2-.3,0-.4l-4.9-2.8ZM258.5,278l5.1-2.9c.2-.1.2-.3,0-.4l-4.9-2.8c-.2-.1-.5-.1-.7,0l-5,2.9c-.2.1-.2.3,0,.4l4.9,2.8c.2,0,.5.1.7,0ZM228.2,279.5l5.1-2.9c.2-.1.2-.3,0-.4l-4.9-2.8c-.2-.1-.5-.1-.7,0l-5.1,2.9c-.2.1-.2.3,0,.4l4.9,2.8c.2,0,.5,0,.7,0h0ZM208.5,306.9l14.9-8.6c.2-.1.2-.3,0-.4l-4.9-2.8c-.2-.1-.5-.1-.7,0l-14.9,8.6c-.2.1-.2.3,0,.4l4.9,2.8c.2.1.5,0,.8,0h0ZM250.4,282.3c.2.1.5.1.7,0l5.1-2.9c.2-.1.2-.3,0-.4l-4.9-2.8c-.2-.1-.5-.1-.7,0l-5.1,2.9c-.2.1-.2.3,0,.4l4.9,2.8ZM244.1,278.3l5.1-2.9c.2-.1.2-.3,0-.4l-4.9-2.8c-.2-.1-.5-.1-.7,0l-5,2.9c-.2.1-.2.3,0,.4l4.9,2.8c.2.1.5.1.7,0h0ZM201,311.2l5.1-2.9c.2-.1.2-.3,0-.4l-4.8-2.8c-.2-.1-.5-.1-.7,0l-5.1,3c-.2.1-.2.3,0,.4l4.9,2.8c.2,0,.5,0,.7,0ZM233.9,291.8c.2.1.5.1.7,0l5.1-2.9c.2-.1.2-.3,0-.4l-4.9-2.8c-.2-.1-.5-.1-.7,0l-5.1,2.9c-.2.1-.2.3,0,.4l4.9,2.8ZM163.8,332.6l5.1-2.9c.2-.1.2-.3,0-.4l-4.9-2.8c-.2-.1-.5-.1-.7,0l-5.1,2.9c-.2.1-.2.3,0,.4l4.9,2.8c.3.1.6.1.8,0h0ZM171.3,328.3l5.1-2.9c.2-.1.2-.3,0-.4l-4.9-2.8c-.2-.1-.5-.1-.7,0l-5.1,2.9c-.2.1-.2.3,0,.4l4.9,2.8c.2.1.5.1.8,0h0ZM156.4,336.9l5.1-2.9c.2-.1.2-.3,0-.4l-4.9-2.8c-.2-.1-.5-.1-.7,0l-5.1,2.9c-.2.1-.2.3,0,.4l4.9,2.8c.2.1.5.1.8,0h0ZM186.1,319.7l5.1-2.9c.2-.1.2-.3,0-.4l-4.9-2.8c-.2-.1-.5-.1-.7,0l-5.1,2.9c-.2.1-.2.3,0,.4l4.9,2.8c.2.1.5.1.7,0h0ZM178.8,324l5.1-2.9c.2-.1.2-.3,0-.4l-4.8-2.8c-.2-.1-.5-.1-.7,0l-5.1,2.9c-.2.1-.2.3,0,.4l4.9,2.8c.2.1.5.1.8,0ZM193.6,315.4l5.1-2.9c.2-.1.2-.3,0-.4l-4.9-2.8c-.2-.1-.5-.1-.7,0l-5.1,2.9c-.2.1-.2.3,0,.4l4.9,2.8c.2.1.5.1.7,0h0ZM234.2,255.7c.2.1.5.1.7,0l5.1-2.9c.2-.1.2-.3,0-.4l-1.3-.8c-.2-.1-.5-.1-.7,0l-5.1,2.9c-.2.1-.2.3,0,.4l1.2.7ZM197.2,279.1c.2.1.5.1.7,0l5.1-2.9c.2-.1.2-.3,0-.4l-4.8-2.8c-.2-.1-.5-.1-.7,0l-5.1,2.9c-.2.1-.2.3,0,.4l4.8,2.8ZM212.1,270.5c.2.1.5.1.7,0l5.1-2.9c.2-.1.2-.3,0-.4l-4.9-2.8c-.2-.1-.5-.1-.7,0l-5.1,2.9c-.2.1-.2.3,0,.4l4.9,2.8ZM188.2,284.4c.2.1.5.1.7,0l5.1-2.9c.2-.1.2-.3,0-.4l-4.9-2.8c-.2-.1-.5-.1-.7,0l-5.1,2.9c-.2.1-.2.3,0,.4l4.8,2.8ZM204.7,274.8c.2.1.5.1.7,0l5.1-2.9c.2-.1.2-.3,0-.4l-4.9-2.8c-.2-.1-.5-.1-.7,0l-5.1,2.9c-.2.1-.2.3,0,.4l4.9,2.8ZM173.3,293c.2.1.5.1.7,0l5.1-2.9c.2-.1.2-.3,0-.4l-4.9-2.8c-.2-.1-.5-.1-.7,0l-5.1,2.9c-.2.1-.2.3,0,.4l4.9,2.8ZM180.7,288.7c.2.1.5.1.7,0l5.1-2.9c.2-.1.2-.3,0-.4l-4.9-2.8c-.2-.1-.5-.1-.7,0l-5.1,2.9c-.2.1-.2.3,0,.4l4.8,2.8ZM219.3,264.4c.2.1.5.1.7,0l5.1-2.9c.2-.1.2-.3,0-.4l-1.3-.7c-.2-.1-.5-.1-.7,0l-5.1,2.9c-.2.1-.2.3,0,.4l1.3.7ZM241.6,251.5c.2.1.5.1.7,0l5.1-2.9c.2-.1.2-.3,0-.4l-1.3-.8c-.2-.1-.5-.1-.7,0l-5.1,2.9c-.2.1-.2.3,0,.4l1.2.7ZM251.8,257.4c.2.1.5.1.7,0l5.1-2.9c.2-.1.2-.3,0-.4l-4.9-2.8c-.2-.1-.5-.1-.7,0l-5.1,2.9c-.2.1-.2.3,0,.4l4.9,2.8ZM266,273.7l5.1-2.9c.2-.1.2-.3,0-.4l-4.9-2.8c-.2-.1-.5-.1-.7,0l-5.1,2.9c-.2.1-.2.3,0,.4l4.9,2.8c.2.1.5.1.7,0ZM226.8,260.1c.2.1.5.1.7,0l5.1-2.9c.2-.1.2-.3,0-.4l-1.3-.7c-.2-.1-.5-.1-.7,0l-5.1,2.9c-.2.1-.2.3,0,.4l1.3.7ZM165.9,297.3c.2.1.5.1.7,0l5.1-2.9c.2-.1.2-.3,0-.4l-4.9-2.8c-.2-.1-.5-.1-.7,0l-5.1,2.9c-.2.1-.2.3,0,.4l4.9,2.8Z"/>
          <polygon class="cls-24" points="187.9 335.6 188.9 336.2 216.6 352.2 265.8 323.7 266.9 323.2 238.1 306.6 187.9 335.6"/>
          <polygon class="cls-25" points="188.9 336.2 216.6 352.2 265.8 323.7 238.1 307.8 188.9 336.2"/>
        </g>
      </g>
      <g id="freepik--Rocket--inject-490">
        <g id="freepik--rocket--inject-490">
          <ellipse class="cls-26" cx="154.1" cy="326.7" rx="41.9" ry="17.2"/>
          <ellipse class="cls-26" cx="154.1" cy="326.7" rx="41.9" ry="17.2"/>
          <ellipse class="cls-13" cx="157.5" cy="326.7" rx="45.3" ry="18.6"/>
          <path class="cls-26" d="M111.4,317.8c.2-10.3,8.8-18.4,19-18.2,9.9.2,17.9,8.2,18.2,18.2,0,.2,0,.3,0,.5,0,.2,0,.3,0,.5-.2,2.6-2,5.1-5.4,7.1-7.3,4.2-19,4.2-26.3,0-3.4-2-5.2-4.5-5.4-7.1,0-.2,0-.3,0-.5,0-.2,0-.3,0-.5Z"/>
          <path class="cls-15" d="M111.4,317.8c.2-10.3,8.8-18.4,19-18.2,9.9.2,17.9,8.2,18.2,18.2,0,.2,0,.3,0,.5,0,.2,0,.3,0,.5-.2,2.6-2,5.1-5.4,7.1-7.3,4.2-19,4.2-26.3,0-3.4-2-5.2-4.5-5.4-7.1,0-.2,0-.3,0-.5,0-.2,0-.3,0-.5Z"/>
          <path class="cls-17" d="M122,301.6h0c9.2-4.5,20.3-.6,24.8,8.6,1.2,2.4,1.8,5,1.9,7.6,0,.2,0,.3,0,.5,0,.2,0,.3,0,.5-.2,2.6-2,5.1-5.4,7.1-2.9,1.6-6.1,2.6-9.3,2.9,4.8-.8,8-6.2,6.5-12.2-1.7-6.9-8.7-16.9-18.4-15.1Z"/>
          <path class="cls-9" d="M111.4,318.8c0-.2,0-.3,0-.5,0-.2,0-.3,0-.5.1-5.2,2.4-10,6.3-13.4-2,2.1-6.5,9.9-1.6,15.9,3.2,3.9,18.5,9.5,31,2.3-1.1,1.4-2.5,2.5-4,3.4-7.3,4.2-19,4.2-26.3,0-3.3-2-5.1-4.5-5.4-7.1Z"/>
          <path class="cls-22" d="M130.2,303.9c-.8,1.9.8,4.4,3.6,5.7s5.8.7,6.6-1.2-.8-4.4-3.6-5.7-5.7-.7-6.6,1.2Z"/>
          <path class="cls-22" d="M141,311.6c-.3,1.3.6,2.6,1.9,2.9,1,.2,1.9-.2,2.5-1,.3-1.3-.6-2.6-1.9-2.9-1-.2-1.9.2-2.5,1Z"/>
          <path class="cls-26" d="M189.2,317.5c-.2-8.7-7.5-15.6-16.2-15.4-8.4.2-15.2,7-15.4,15.4v.9c.2,2.2,1.7,4.3,4.6,6,6.2,3.6,16.2,3.6,22.4,0,2.9-1.7,4.4-3.8,4.6-6v-.4c0-.1,0-.3,0-.4Z"/>
          <path class="cls-15" d="M189.2,317.5c-.2-8.7-7.5-15.6-16.2-15.4-8.4.2-15.2,7-15.4,15.4v.9c.2,2.2,1.7,4.3,4.6,6,6.2,3.6,16.2,3.6,22.4,0,2.9-1.7,4.4-3.8,4.6-6v-.4c0-.1,0-.3,0-.4Z"/>
          <path class="cls-17" d="M180.3,303.7h0c-7.8-3.8-17.3-.5-21.1,7.3-1,2-1.5,4.2-1.6,6.5v.9c.2,2.2,1.7,4.3,4.6,6,2.5,1.4,5.2,2.2,8,2.5-4.1-.7-6.8-5.3-5.5-10.3,1.4-5.9,7.3-14.3,15.5-12.8Z"/>
          <path class="cls-9" d="M189.2,318.4v-.9c-.1-4.4-2.1-8.5-5.4-11.4,1.7,1.8,5.5,8.4,1.4,13.5-2.7,3.3-15.7,8.1-26.3,2,.9,1.2,2.1,2.1,3.4,2.8,6.2,3.6,16.2,3.6,22.4,0,2.9-1.7,4.4-3.8,4.6-6Z"/>
          <path class="cls-22" d="M173.2,305.7c.7,1.6-.7,3.8-3,4.8s-4.9.6-5.6-1,.6-3.8,3-4.8,4.9-.6,5.6,1Z"/>
          <path class="cls-22" d="M164.1,312.3c.7.9.5,2.2-.5,2.9-.9.7-2.2.5-2.9-.5-.7-.9-.5-2.2.5-2.9.1,0,.2-.2.4-.2.9-.5,2-.2,2.5.7Z"/>
          <path class="cls-26" d="M204.6,319.3c0-5.8-4.7-10.4-10.4-10.4s-10.4,4.7-10.4,10.4c0,.2,0,.4,0,.6.1,1.5,1.1,2.9,3.1,4,4.7,2.3,10.1,2.3,14.8,0,1.9-1.1,2.9-2.5,3-4,0-.2,0-.4,0-.6h0Z"/>
          <path class="cls-13" d="M204.6,319.3c0-5.8-4.7-10.4-10.4-10.4s-10.4,4.7-10.4,10.4c0,.2,0,.4,0,.6.1,1.5,1.1,2.9,3.1,4,4.7,2.3,10.1,2.3,14.8,0,1.9-1.1,2.9-2.5,3-4,0-.2,0-.4,0-.6h0Z"/>
          <path class="cls-22" d="M198.7,310.2h0c-5.2-2.5-11.4-.4-13.9,4.8-.7,1.3-1,2.8-1.1,4.3,0,.2,0,.4,0,.6.1,1.5,1.1,2.9,3.1,4,1.6.9,3.4,1.4,5.2,1.6-2.7-.5-4.5-3.5-3.6-6.8,1-3.9,4.9-9.5,10.3-8.5Z"/>
          <path class="cls-9" d="M204.6,319.9c0-.2,0-.4,0-.6,0-2.9-1.4-5.6-3.5-7.5,1.1,1.2,3.7,5.6.9,8.9-1.8,2.2-10.4,5.4-17.4,1.3.6.8,1.4,1.4,2.2,1.9,4.7,2.3,10.1,2.3,14.8,0,1.9-1.1,2.9-2.5,3-4Z"/>
          <path class="cls-22" d="M194.1,311.5c.5,1.1-.4,2.5-2,3.2s-3.2.4-3.7-.7.4-2.5,2-3.2,3.2-.3,3.7.7Z"/>
          <path class="cls-22" d="M188,315.9c.2.6-.1,1.3-.8,1.5-.6.1-1.2-.3-1.3-.9-.1-.6.3-1.2.9-1.3.5-.1,1.1.2,1.3.6Z"/>
          <path class="cls-26" d="M226.9,323.9c-.2-7.8-6.7-14-14.6-13.8-7.5.2-13.6,6.3-13.8,13.8v.8c.2,2,1.6,3.9,4.2,5.4,5.5,3.2,14.5,3.2,20.1,0,2.6-1.5,4-3.4,4.1-5.4v-.4c0-.1,0-.3,0-.4Z"/>
          <path class="cls-12" d="M226.9,323.9c-.2-7.8-6.7-14-14.6-13.8-7.5.2-13.6,6.3-13.8,13.8v.8c.2,2,1.6,3.9,4.2,5.4,5.5,3.2,14.5,3.2,20.1,0,2.6-1.5,4-3.4,4.1-5.4v-.4c0-.1,0-.3,0-.4Z"/>
          <path class="cls-17" d="M218.8,311.5h0c-7.1-3.4-15.6-.4-19,6.6-.9,1.8-1.3,3.8-1.4,5.8v.8c.2,2,1.6,3.9,4.2,5.4,2.2,1.2,4.6,2,7.1,2.2-3.7-.6-6.1-4.8-4.9-9.3,1.3-5.3,6.6-12.9,14-11.5Z"/>
          <path class="cls-9" d="M226.9,324.7v-.8c-.1-3.9-1.9-7.7-4.8-10.2,1.5,1.6,5,7.6,1.2,12.1-2.4,3-14.1,7.3-23.7,1.8.8,1,1.8,1.9,3,2.6,5.5,3.2,14.5,3.2,20.1,0,2.6-1.5,4-3.4,4.2-5.4Z"/>
          <path class="cls-22" d="M212.5,313.3c.6,1.4-.6,3.4-2.7,4.3s-4.4.5-5-.9.6-3.4,2.7-4.3,4.4-.5,5,.9Z"/>
          <path class="cls-22" d="M204.3,319.2c.6.8.4,2-.4,2.6-.8.6-2,.4-2.6-.4-.6-.8-.4-2,.4-2.6.1,0,.2-.1.3-.2.8-.4,1.8-.2,2.3.6Z"/>
          <path class="cls-26" d="M171.1,293c0,5-2.2,9.7-6,12.9-2.5,2.1-4,5.2-4,8.4v34.5c-.1,1.2-.9,2.3-2,2.9-.8.4-1.7.8-2.6.9-1.6.3-3.2.3-4.8,0-.9-.2-1.8-.5-2.6-.9-1.1-.5-1.9-1.6-2-2.9v-34.6c0-3.2-1.5-6.3-4-8.3-3.8-3.2-6-8-6-13.1,0-9.4,7.7-17,17.1-16.9s17,7.7,16.9,17.1h-.1Z"/>
          <path class="cls-22" d="M171.1,293c0,5-2.2,9.7-6,12.9-2.5,2.1-4,5.2-4,8.4v34.5c-.1,1.2-.9,2.3-2,2.9-.8.4-1.7.8-2.6.9-1.6.3-3.2.3-4.8,0-.9-.2-1.8-.5-2.6-.9-1.1-.5-1.9-1.6-2-2.9v-34.6c0-3.2-1.5-6.3-4-8.3-3.8-3.2-6-8-6-13.1,0-9.4,7.7-17,17.1-16.9s17,7.7,16.9,17.1h-.1Z"/>
          <path class="cls-5" d="M171.1,293c0,5-2.2,9.7-6,12.9-2.5,2.1-4,5.2-4,8.4v34.5c-.1,1.2-.9,2.3-2,2.9-.8.4-1.7.8-2.6.9-1.6.3-3.2.3-4.8,0-.9-.2-1.8-.5-2.6-.9-1.1-.5-1.9-1.6-2-2.9v-34.6c0-3.2-1.5-6.3-4-8.3-3.8-3.2-6-8-6-13.1,0-9.4,7.7-17,17.1-16.9s17,7.7,16.9,17.1h-.1Z"/>
          <path class="cls-26" d="M163.6,293c0,3.1-1.5,5.9-4,7.7-2,1.5-3.1,3.8-3.1,6.3v42.8c0,1.3-1,2.4-2.4,2.4h0c-1.3,0-2.4-1.1-2.4-2.4v-43c0-2.4-1.1-4.7-3.1-6.2-2.6-1.8-4.1-4.8-4-8,0-5.2,4.4-9.4,9.6-9.3s9.4,4.4,9.3,9.6h0Z"/>
          <path class="cls-18" d="M163.6,293c0,3.1-1.5,5.9-4,7.7-2,1.5-3.1,3.8-3.1,6.3v42.8c0,1.3-1,2.4-2.4,2.4h0c-1.3,0-2.4-1.1-2.4-2.4v-43c0-2.4-1.1-4.7-3.1-6.2-2.6-1.8-4.1-4.8-4-8,0-5.2,4.4-9.4,9.6-9.3s9.4,4.4,9.3,9.6h0Z"/>
          <circle class="cls-12" cx="162.7" cy="301.2" r="3.6"/>
          <circle class="cls-12" cx="161.2" cy="290.5" r="2.7"/>
          <path class="cls-12" d="M153.3,286.2c0-.7.6-1.3,1.3-1.3s1.3.6,1.3,1.3c0,.7-.6,1.3-1.3,1.3h0c-.7,0-1.3-.6-1.3-1.3Z"/>
          <path class="cls-12" d="M142.6,287.8c0-2,1.7-3.6,3.7-3.6,2,0,3.6,1.7,3.6,3.7,0,2-1.7,3.6-3.7,3.6-2,0-3.6-1.6-3.6-3.6,0,0,0,0,0,0Z"/>
          <path class="cls-12" d="M142,294.4c0,.9.6,1.8,1.6,1.8.9,0,1.8-.6,1.8-1.6,0,0,0-.2,0-.3,0-.9-.9-1.6-1.8-1.6-.8,0-1.5.7-1.6,1.6Z"/>
          <path class="cls-12" d="M142.2,300.9c0-1.8,1.5-3.3,3.3-3.3s3.3,1.5,3.3,3.3c0,1.8-1.5,3.3-3.3,3.3h0c-1.8,0-3.3-1.5-3.3-3.3Z"/>
          <path class="cls-12" d="M149.5,305.7c0-1.3,1-2.3,2.3-2.3s2.3,1,2.3,2.3-1,2.3-2.3,2.3h0c-1.3,0-2.3-1-2.3-2.3Z"/>
          <circle class="cls-12" cx="139.9" cy="290.5" r="1.2"/>
          <circle class="cls-12" cx="165.6" cy="285.7" r="1.5"/>
          <path class="cls-12" d="M165.6,293.2c0-.9.7-1.5,1.5-1.5.9,0,1.5.7,1.5,1.5s-.7,1.5-1.5,1.5-1.5-.7-1.5-1.5h0Z"/>
          <path class="cls-12" d="M149.6,294.5c0-.9.7-1.6,1.5-1.6.9,0,1.6.7,1.6,1.5,0,.9-.7,1.6-1.5,1.6,0,0,0,0,0,0-.9,0-1.5-.7-1.5-1.5h0Z"/>
          <path class="cls-26" d="M242.9,326.3c0-4.8-3.9-8.6-8.7-8.6-4.8,0-8.6,3.9-8.6,8.6,0,0,0,.2,0,.2,0,0,0,.2,0,.2.2,1.4,1.2,2.7,2.5,3.3,3.8,1.9,8.4,1.9,12.2,0,1.3-.6,2.3-1.8,2.5-3.3v-.5Z"/>
          <path class="cls-22" d="M242.9,326.3c0-4.8-3.9-8.6-8.7-8.6-4.8,0-8.6,3.9-8.6,8.6,0,0,0,.2,0,.2,0,0,0,.2,0,.2.2,1.4,1.2,2.7,2.5,3.3,3.8,1.9,8.4,1.9,12.2,0,1.3-.6,2.3-1.8,2.5-3.3v-.5Z"/>
          <path class="cls-22" d="M238,318.8h0c-4.3-2.1-9.5-.3-11.5,4-.5,1.1-.8,2.3-.9,3.5,0,0,0,.2,0,.2,0,0,0,.2,0,.2.2,1.4,1.2,2.7,2.5,3.3,1.3.7,2.8,1.2,4.3,1.4-2.2-.4-3.7-2.9-3-5.7.8-3.2,4-7.8,8.5-7Z"/>
          <path class="cls-11" d="M242.9,326.8v-.5c0-2.4-1.1-4.7-2.9-6.2.9,1,3,4.6.8,7.4-1.5,1.8-8.6,4.4-14.4,1.1.5.6,1.1,1.2,1.8,1.6,3.8,1.9,8.4,1.9,12.2,0,1.3-.6,2.3-1.8,2.5-3.3Z"/>
          <path class="cls-22" d="M234.2,319.9c.4.9-.4,2.1-1.7,2.6s-2.7.3-3.1-.6.4-2.1,1.7-2.6,2.6-.3,3.1.6Z"/>
          <path class="cls-22" d="M229.2,323.5c.4.5.2,1.2-.3,1.6s-1.2.2-1.6-.3c-.4-.5-.2-1.2.3-1.6,0,0,.1,0,.2-.1.5-.3,1.1-.1,1.4.4,0,0,0,0,0,0Z"/>
          <path class="cls-26" d="M229.9,333.5c0-6.6-5.3-11.9-11.9-11.9s-11.9,5.3-11.9,11.9v.7c.1,1.6,1.3,3.3,3.5,4.5,4.6,2.7,12.2,2.7,16.9,0,2.2-1.3,3.3-2.9,3.5-4.5v-.3c0-.1,0-.2,0-.3Z"/>
          <path class="cls-21" d="M229.9,333.5c0-6.6-5.3-11.9-11.9-11.9s-11.9,5.3-11.9,11.9v.7c.1,1.6,1.3,3.3,3.5,4.5,4.6,2.7,12.2,2.7,16.9,0,2.2-1.3,3.3-2.9,3.5-4.5v-.3c0-.1,0-.2,0-.3Z"/>
          <path class="cls-22" d="M223.2,323.1h0c-5.9-2.9-13-.4-15.9,5.5-.7,1.5-1.1,3.2-1.2,4.9v.7c.1,1.6,1.3,3.3,3.5,4.5,1.9,1,3.9,1.6,6,1.9-3.1-.5-5.1-4-4.1-7.8,1.1-4.4,5.6-10.8,11.7-9.7Z"/>
          <path class="cls-9" d="M229.9,334.1v-.7c0-3.3-1.6-6.4-4-8.6,1.3,1.3,4.2,6.3,1,10.2-2.1,2.5-11.8,6.1-19.9,1.5.7.9,1.5,1.6,2.5,2.1,4.6,2.7,12.2,2.7,16.9,0,2.2-1.3,3.3-2.9,3.5-4.5Z"/>
          <path class="cls-17" d="M217.9,324.6c.5,1.2-.5,2.8-2.3,3.6s-3.7.5-4.2-.8.5-2.8,2.3-3.6,3.7-.4,4.2.8Z"/>
          <path class="cls-17" d="M211,329.5c.2.9-.4,1.7-1.2,1.8-.6.1-1.2-.1-1.6-.6-.2-.9.4-1.7,1.2-1.8.6-.1,1.2.1,1.6.6Z"/>
          <path class="cls-26" d="M208.8,339.3c-.2-8.2-7-14.6-15.2-14.4-7.9.2-14.2,6.5-14.4,14.4v.8c.2,2,1.6,4,4.3,5.6,5.8,3.3,15.1,3.3,20.9,0,2.7-1.6,4.1-3.6,4.3-5.6v-.4c0-.1,0-.3,0-.4Z"/>
          <path class="cls-15" d="M208.8,339.3c-.2-8.2-7-14.6-15.2-14.4-7.9.2-14.2,6.5-14.4,14.4v.8c.2,2,1.6,4,4.3,5.6,5.8,3.3,15.1,3.3,20.9,0,2.7-1.6,4.1-3.6,4.3-5.6v-.4c0-.1,0-.3,0-.4Z"/>
          <path class="cls-17" d="M200.4,326.4h0c-7.3-3.6-16.2-.5-19.7,6.8-.9,1.9-1.4,4-1.5,6.1v.8c.2,2,1.6,4,4.3,5.6,2.3,1.3,4.8,2,7.4,2.3-3.8-.7-6.3-4.9-5.1-9.7,1.3-5.5,6.9-13.4,14.6-12Z"/>
          <path class="cls-9" d="M208.8,340.1v-.8c-.1-4.1-1.9-8-5-10.7,1.6,1.6,5.2,7.9,1.3,12.6-2.6,3.1-14.7,7.6-24.7,1.9.9,1.1,1.9,2,3.1,2.7,5.8,3.3,15.1,3.3,20.9,0,2.7-1.6,4.1-3.6,4.3-5.6Z"/>
          <path class="cls-17" d="M193.9,328.2c.7,1.5-.6,3.5-2.8,4.5s-4.6.5-5.2-1,.6-3.5,2.8-4.5,4.6-.5,5.2,1Z"/>
          <path class="cls-17" d="M185.3,334.3c.3.9-.2,1.9-1.1,2.2-.7.5-1.7.3-2.2-.4-.5-.7-.3-1.7.4-2.2.2-.1.4-.2.6-.3.8-.5,1.9-.2,2.4.7Z"/>
          <path class="cls-26" d="M250.2,328.4c0-2.9-2.3-5.2-5.2-5.2-2.9,0-5.2,2.3-5.2,5.2v.3c.1.9.7,1.6,1.5,2,2.3,1.2,5.1,1.2,7.4,0,.8-.4,1.4-1.1,1.5-2v-.3Z"/>
          <path class="cls-19" d="M250.2,328.4c0-2.9-2.3-5.2-5.2-5.2-2.9,0-5.2,2.3-5.2,5.2v.3c.1.9.7,1.6,1.5,2,2.3,1.2,5.1,1.2,7.4,0,.8-.4,1.4-1.1,1.5-2v-.3Z"/>
          <path class="cls-22" d="M247.3,323.8h0c-2.6-1.3-5.7-.2-7,2.4-.3.7-.5,1.4-.5,2.1v.3c.1.9.7,1.6,1.5,2,.8.4,1.7.7,2.6.8-1.4-.4-2.3-1.8-1.9-3.2,0,0,0-.1,0-.2.5-2,2.4-4.8,5.2-4.2Z"/>
          <path class="cls-30" d="M250.2,328.7v-.3c0-1.5-.7-2.8-1.8-3.8.6.6,1.8,2.8.5,4.5-.9,1.1-5.2,2.7-8.7.6.3.4.7.7,1.1.9,2.3,1.2,5.1,1.2,7.4,0,.8-.4,1.4-1.1,1.5-2Z"/>
          <path class="cls-17" d="M244.9,324.5c.2.5-.2,1.2-1,1.6s-1.6.2-1.9-.3.2-1.2,1-1.6,1.6-.2,1.9.3Z"/>
          <path class="cls-17" d="M241.9,326.6c0,.3,0,.7-.4.8-.2.2-.6.1-.8-.1-.2-.2-.1-.6.1-.8,0,0,.1,0,.2,0,.3-.2.7,0,.8.2Z"/>
          <path class="cls-26" d="M70.8,321.9c0-4.8,3.9-8.6,8.7-8.6,4.8,0,8.6,3.9,8.6,8.6,0,0,0,.2,0,.2,0,0,0,.2,0,.2-.3,1.4-1.2,2.7-2.5,3.3-3.8,1.9-8.4,1.9-12.2,0-1.3-.6-2.3-1.8-2.5-3.3,0,0,0-.2,0-.2,0,0,0-.2,0-.2Z"/>
          <path class="cls-22" d="M70.8,321.9c0-4.8,3.9-8.6,8.7-8.6,4.8,0,8.6,3.9,8.6,8.6,0,0,0,.2,0,.2,0,0,0,.2,0,.2-.3,1.4-1.2,2.7-2.5,3.3-3.8,1.9-8.4,1.9-12.2,0-1.3-.6-2.3-1.8-2.5-3.3,0,0,0-.2,0-.2,0,0,0-.2,0-.2Z"/>
          <path class="cls-22" d="M75.7,314.4h0c1.2-.6,2.5-.9,3.8-.9,4.7,0,8.5,3.7,8.7,8.4,0,0,0,.2,0,.2,0,0,0,.2,0,.2-.3,1.4-1.2,2.7-2.5,3.3-1.3.7-2.8,1.2-4.3,1.4,2.2-.4,3.7-2.9,3-5.7-.8-3.2-4.1-7.9-8.5-7Z"/>
          <path class="cls-11" d="M70.8,322.4c0,0,0-.2,0-.2,0,0,0-.2,0-.2,0-2.4,1.1-4.7,2.9-6.2-.9,1-3,4.6-.8,7.4,1.5,1.8,8.6,4.4,14.4,1.1-.5.6-1.1,1.2-1.8,1.6-3.8,1.9-8.4,1.9-12.2,0-1.3-.6-2.3-1.8-2.5-3.3Z"/>
          <path class="cls-17" d="M79.6,315.5c-.4.9.4,2.1,1.7,2.6s2.7.3,3.1-.6-.4-2.1-1.7-2.6-2.7-.3-3.1.6Z"/>
          <path class="cls-17" d="M84.6,319.1c-.4.5-.2,1.2.3,1.6.5.4,1.2.2,1.6-.3s.2-1.2-.3-1.6c0,0-.1,0-.2-.1-.5-.3-1.1-.1-1.4.4,0,0,0,0,0,0Z"/>
          <path class="cls-26" d="M89.4,325.2c0-6.9,5.6-12.5,12.6-12.5s12.6,5.6,12.6,12.5v.7c-.1,1.7-1.4,3.4-3.7,4.8-4.9,2.8-12.9,2.8-17.8,0-2.3-1.3-3.5-3-3.7-4.8v-.4c0-.1,0-.2,0-.4Z"/>
          <path class="cls-12" d="M89.4,325.2c0-6.9,5.6-12.5,12.6-12.5s12.6,5.6,12.6,12.5v.7c-.1,1.7-1.4,3.4-3.7,4.8-4.9,2.8-12.9,2.8-17.8,0-2.3-1.3-3.5-3-3.7-4.8v-.4c0-.1,0-.2,0-.4Z"/>
          <path class="cls-17" d="M96.5,314.3h0c6.2-3,13.7-.4,16.8,5.8.8,1.6,1.2,3.4,1.2,5.2v.7c-.1,1.7-1.4,3.4-3.7,4.8-1.9,1.1-4.1,1.8-6.3,2,3.2-.6,5.4-4.2,4.4-8.2-1.2-4.7-5.9-11.5-12.4-10.2Z"/>
          <path class="cls-9" d="M89.4,325.9v-.7c0-3.5,1.6-6.8,4.3-9.1-1.4,1.4-4.4,6.7-1.1,10.7,2.2,2.6,12.5,6.4,20.9,1.6-.7.9-1.6,1.7-2.7,2.3-4.9,2.8-12.9,2.8-17.8,0-2.3-1.3-3.5-3-3.7-4.8Z"/>
          <path class="cls-22" d="M102.1,315.9c-.6,1.3.5,3,2.4,3.8s3.9.5,4.4-.8-.5-3-2.4-3.8-3.9-.5-4.4.8Z"/>
          <path class="cls-22" d="M109.3,321.1c-.5.7-.4,1.8.4,2.3.7.5,1.8.4,2.3-.4s.4-1.8-.4-2.3c0,0-.2-.1-.3-.2-.7-.4-1.6-.1-2,.6Z"/>
          <path class="cls-26" d="M78.3,332.6c0-6.6,5.3-11.9,11.9-11.9,6.6,0,11.9,5.3,11.9,11.9v.7c-.1,1.6-1.3,3.3-3.5,4.5-4.7,2.7-12.2,2.7-16.9,0-2.2-1.3-3.3-2.9-3.5-4.5v-.3c0-.1,0-.2,0-.3Z"/>
          <path class="cls-21" d="M78.3,332.6c0-6.6,5.3-11.9,11.9-11.9,6.6,0,11.9,5.3,11.9,11.9v.7c-.1,1.6-1.3,3.3-3.5,4.5-4.7,2.7-12.2,2.7-16.9,0-2.2-1.3-3.3-2.9-3.5-4.5v-.3c0-.1,0-.2,0-.3Z"/>
          <path class="cls-22" d="M85.1,322.2h0c5.9-2.9,13-.4,15.9,5.5.8,1.5,1.2,3.2,1.2,4.9v.7c-.1,1.6-1.3,3.3-3.5,4.5-1.9,1-3.9,1.6-6,1.9,3.1-.5,5.1-4,4.1-7.8-1.1-4.4-5.6-10.8-11.8-9.7Z"/>
          <path class="cls-8" d="M78.3,333.3v-.7c0-3.3,1.5-6.4,4-8.6-1.3,1.3-4.2,6.4-1,10.2,2.1,2.5,11.8,6.1,19.9,1.5-.7.9-1.5,1.6-2.5,2.1-4.7,2.7-12.2,2.7-16.9,0-2.2-1.3-3.3-2.9-3.5-4.5Z"/>
          <path class="cls-17" d="M90.4,323.7c-.5,1.2.5,2.8,2.3,3.6,1.8.8,3.7.4,4.2-.8s-.5-2.8-2.3-3.6-3.7-.4-4.2.8Z"/>
          <path class="cls-17" d="M97.3,328.6c-.2.8.4,1.7,1.2,1.9.6.1,1.2-.1,1.6-.6.2-.8-.4-1.7-1.2-1.9-.6-.1-1.2.1-1.6.6Z"/>
          <path class="cls-26" d="M103.6,337.8c.3-8.2,7.2-14.5,15.3-14.2,7.7.3,14,6.5,14.2,14.2v.8c-.2,2-1.6,4.1-4.3,5.6-5.8,3.3-15.1,3.3-20.9,0-2.7-1.6-4.1-3.6-4.3-5.6v-.4c0-.1,0-.3,0-.4Z"/>
          <path class="cls-15" d="M103.6,337.8c.3-8.2,7.2-14.5,15.3-14.2,7.7.3,14,6.5,14.2,14.2v.8c-.2,2-1.6,4.1-4.3,5.6-5.8,3.3-15.1,3.3-20.9,0-2.7-1.6-4.1-3.6-4.3-5.6v-.4c0-.1,0-.3,0-.4Z"/>
          <path class="cls-17" d="M112,324.9h0c7.3-3.6,16.2-.5,19.7,6.8.9,1.9,1.4,4,1.5,6.1v.8c-.2,2-1.6,4.1-4.3,5.6-2.3,1.3-4.8,2-7.4,2.3,3.8-.7,6.3-5,5.1-9.7-1.4-5.4-6.9-13.4-14.6-12Z"/>
          <path class="cls-9" d="M103.6,338.6v-.8c0-4.1,1.9-8,5-10.7-1.6,1.6-5.2,7.9-1.3,12.6,2.6,3.1,14.7,7.6,24.6,1.9-.9,1.1-1.9,2-3.1,2.7-5.8,3.3-15.1,3.3-20.9,0-2.7-1.6-4.1-3.6-4.3-5.6Z"/>
          <path class="cls-17" d="M118.5,326.8c-.7,1.5.6,3.5,2.8,4.5s4.6.6,5.2-1-.6-3.5-2.8-4.5-4.6-.5-5.2,1Z"/>
          <path class="cls-17" d="M127.1,332.9c-.6.9-.4,2.1.5,2.7s2.1.4,2.7-.5.4-2.1-.5-2.7c-.1,0-.2-.1-.3-.2-.8-.5-1.9-.2-2.4.7Z"/>
          <path class="cls-26" d="M182.8,347.6c0-7.5-6-13.5-13.5-13.5s-13.5,6-13.5,13.5v.8c.1,1.9,1.5,3.7,3.9,5.1,5.3,3,13.8,3,19.1,0,2.5-1.4,3.8-3.3,3.9-5.1v-.4c0-.1,0-.2,0-.4Z"/>
          <path class="cls-13" d="M182.8,347.6c0-7.5-6-13.5-13.5-13.5s-13.5,6-13.5,13.5v.8c.1,1.9,1.5,3.7,3.9,5.1,5.3,3,13.8,3,19.1,0,2.5-1.4,3.8-3.3,3.9-5.1v-.4c0-.1,0-.2,0-.4Z"/>
          <path class="cls-22" d="M175.2,335.8h0c-6.7-3.2-14.8-.4-18,6.3-.8,1.7-1.3,3.6-1.3,5.5v.8c.1,1.9,1.5,3.7,3.9,5.1,2.1,1.2,4.4,1.9,6.8,2.1-3.5-.6-5.8-4.5-4.7-8.8s6.3-12.2,13.3-11Z"/>
          <path class="cls-9" d="M182.8,348.4v-.8c0-3.7-1.8-7.3-4.6-9.8,1.5,1.5,4.7,7.2,1.2,11.5-2.3,2.9-13.4,6.9-22.5,1.7.8,1,1.8,1.8,2.9,2.4,5.3,3,13.8,3,19.1,0,2.5-1.4,3.8-3.2,3.9-5.1Z"/>
          <path class="cls-22" d="M169.2,337.5c.6,1.4-.6,3.2-2.6,4.1s-4.2.5-4.8-.9.6-3.2,2.6-4.1,4.2-.5,4.8.9Z"/>
          <path class="cls-22" d="M161.4,343.1c.5.8.3,1.9-.5,2.5-.8.5-1.9.3-2.5-.5-.5-.8-.3-1.9.5-2.5,0,0,.2-.1.3-.1.8-.4,1.7-.2,2.2.6,0,0,0,0,0,0Z"/>
          <path class="cls-26" d="M126.5,349.1c.2-7.1,6.1-12.7,13.2-12.5,6.8.2,12.3,5.7,12.5,12.5v.7c-.1,1.8-1.4,3.5-3.8,4.9-5,2.9-13.1,2.9-18.2,0-2.4-1.4-3.6-3.1-3.8-4.9v-.4c0-.1,0-.2,0-.4Z"/>
          <path class="cls-13" d="M126.5,349.1c.2-7.1,6.1-12.7,13.2-12.5,6.8.2,12.3,5.7,12.5,12.5v.7c-.1,1.8-1.4,3.5-3.8,4.9-5,2.9-13.1,2.9-18.2,0-2.4-1.4-3.6-3.1-3.8-4.9v-.4c0-.1,0-.2,0-.4Z"/>
          <path class="cls-22" d="M133.7,337.9h0c1.7-.8,3.6-1.3,5.6-1.3,7,0,12.6,5.5,12.8,12.5v.7c-.1,1.8-1.4,3.5-3.8,4.9-2,1.1-4.2,1.8-6.4,2,3.3-.6,5.5-4.3,4.5-8.4-1.2-4.8-6-11.6-12.7-10.4Z"/>
          <path class="cls-9" d="M126.5,349.8v-.7c0-3.6,1.7-6.9,4.4-9.3-1.4,1.4-4.5,6.8-1.1,11,2.2,2.7,12.8,6.6,21.4,1.6-.7.9-1.7,1.7-2.7,2.3-5,2.9-13.1,2.9-18.2,0-2.4-1.4-3.6-3.2-3.8-4.9Z"/>
          <path class="cls-22" d="M139.4,339.5c-.6,1.3.5,3.1,2.5,3.9s4,.5,4.6-.8-.5-3.1-2.5-3.9-4-.5-4.5.8Z"/>
          <path class="cls-22" d="M146.9,344.8c-.5.8-.4,1.8.4,2.4s1.8.4,2.4-.4c.5-.8.4-1.8-.4-2.4,0,0-.2-.1-.3-.2-.7-.4-1.6-.2-2.1.6Z"/>
          <path class="cls-26" d="M159.8,353.6c0-2.9-2.3-5.2-5.2-5.2s-5.2,2.3-5.2,5.2v.3c.2.9.7,1.6,1.5,2,2.3,1.2,5.1,1.2,7.4,0,.8-.4,1.4-1.1,1.5-2v-.3h0Z"/>
          <path class="cls-13" d="M159.8,353.6c0-2.9-2.3-5.2-5.2-5.2s-5.2,2.3-5.2,5.2v.3c.2.9.7,1.6,1.5,2,2.3,1.2,5.1,1.2,7.4,0,.8-.4,1.4-1.1,1.5-2v-.3h0Z"/>
          <path class="cls-21" d="M156.8,349h0c-.7-.3-1.5-.5-2.3-.5-2.8,0-5.1,2.3-5.2,5.1v.3c.2.9.7,1.6,1.5,2,.8.4,1.7.7,2.6.8-1.4-.4-2.3-1.8-1.9-3.2,0,0,0-.1,0-.2.5-1.9,2.4-4.8,5.2-4.2Z"/>
          <path class="cls-9" d="M159.8,353.9v-.3c0-1.5-.7-2.8-1.8-3.8.6.6,1.8,2.8.5,4.5-.9,1.1-5.2,2.7-8.7.7.3.4.7.7,1.1.9,2.3,1.2,5.1,1.2,7.4,0,.8-.4,1.4-1.1,1.5-2Z"/>
          <path class="cls-22" d="M154.5,349.7c.2.5-.2,1.2-1,1.6s-1.6.2-1.9-.3.2-1.2,1-1.6,1.6-.2,1.9.3Z"/>
          <path class="cls-22" d="M151.5,351.8c0,.3,0,.7-.4.8-.2.2-.6.1-.8-.1-.2-.2-.1-.6.1-.8,0,0,.1,0,.2,0,.3-.2.7,0,.8.2Z"/>
          <path class="cls-26" d="M63.5,324c.1-2.9,2.6-5.1,5.5-5,2.7.1,4.9,2.3,5,5,0,0,0,.1,0,.1,0,0,0,0,0,.1-.1.9-.7,1.6-1.5,2-2.3,1.2-5.1,1.2-7.4,0-.8-.4-1.4-1.1-1.5-2v-.3Z"/>
          <path class="cls-19" d="M63.5,324c.1-2.9,2.6-5.1,5.5-5,2.7.1,4.9,2.3,5,5,0,0,0,.1,0,.1,0,0,0,0,0,.1-.1.9-.7,1.6-1.5,2-2.3,1.2-5.1,1.2-7.4,0-.8-.4-1.4-1.1-1.5-2v-.3Z"/>
          <path class="cls-22" d="M66.5,319.4h0c2.6-1.3,5.7-.2,7,2.4.3.7.5,1.4.5,2.1,0,0,0,.1,0,.1,0,0,0,0,0,.1-.1.9-.7,1.6-1.5,2-.8.4-1.7.7-2.6.8,1.4-.4,2.3-1.8,1.9-3.2,0,0,0-.1,0-.2-.5-2-2.4-4.8-5.2-4.2Z"/>
          <path class="cls-30" d="M63.5,324.2v-.3c0-1.5.7-2.8,1.8-3.8-.6.6-1.8,2.8-.5,4.5.9,1.1,5.2,2.7,8.7.6-.3.4-.7.7-1.1.9-2.3,1.2-5.1,1.2-7.4,0-.8-.4-1.4-1.1-1.5-2Z"/>
          <path class="cls-17" d="M68.8,320c-.2.5.2,1.2,1,1.6s1.6.2,1.8-.3-.2-1.2-1-1.6-1.6-.2-1.8.3Z"/>
          <path class="cls-17" d="M71.8,322.2c0,.4.1.7.5.8.3,0,.6,0,.7-.3,0-.3,0-.7-.4-.8-.3-.2-.7,0-.8.2Z"/>
          <path class="cls-26" d="M174.9,270h-9.1c-1.3,7.9,2.9,13.9,4.5,13.9s5.8-6,4.6-13.9Z"/>
          <path class="cls-12" d="M174.9,270h-9.1c-1.3,7.9,2.9,13.9,4.5,13.9s5.8-6,4.6-13.9Z"/>
          <path class="cls-28" d="M170.4,270h1.6c.7,1.3,1,2.7.8,4.2-.2,2.1-1.5,4.9-2.4,4.9s-2.2-2.8-2.4-4.9c-.2-1.5.1-2.9.9-4.2h1.6"/>
          <path class="cls-26" d="M174.9,255.9l-9.4,3.3-.7,3.1c0,1.3.6,2.6,1.7,3.3.4.3.9.6,1.4.8,1.7.7,3.7.7,5.4,0,.5-.2,1-.4,1.4-.8,1.1-.7,1.8-2,1.7-3.3l-1.5-6.5Z"/>
          <path class="cls-19" d="M174.9,255.9l-9.4,3.3-.7,3.1c0,1.3.6,2.6,1.7,3.3.4.3.9.6,1.4.8,1.7.7,3.7.7,5.4,0,.5-.2,1-.4,1.4-.8,1.1-.7,1.8-2,1.7-3.3l-1.5-6.5Z"/>
          <path class="cls-26" d="M176.6,263.3l.3,1.3c0,1.4-.7,2.7-1.9,3.5-.5.3-1,.6-1.5.8-1.9.7-4,.7-5.9,0-.6-.2-1.1-.5-1.6-.9-1.2-.8-1.9-2.1-1.9-3.5l-.9,3.7h0c0,1.4.9,2.7,2.1,3.4.6.4,1.2.7,1.8.9,2.1.7,4.4.7,6.6,0,.6-.2,1.2-.5,1.8-.9,1.2-.7,2-2,2.1-3.4l-1.2-5Z"/>
          <path class="cls-19" d="M176.6,263.3l.3,1.3c0,1.4-.7,2.7-1.9,3.5-.5.3-1,.6-1.5.8-1.9.7-4,.7-5.9,0-.6-.2-1.1-.5-1.6-.9-1.2-.8-1.9-2.1-1.9-3.5l-.9,3.7h0c0,1.4.9,2.7,2.1,3.4.6.4,1.2.7,1.8.9,2.1.7,4.4.7,6.6,0,.6-.2,1.2-.5,1.8-.9,1.2-.7,2-2,2.1-3.4l-1.2-5Z"/>
          <path class="cls-30" d="M176.6,263.3v-.3c0,0-.2-.6-.2-.6,0,1.3-.6,2.6-1.7,3.3-.4.3-.9.6-1.4.8-1.7.7-3.7.7-5.4,0-.5-.2-1-.5-1.4-.8-1.1-.7-1.8-2-1.7-3.3l-.5,2.3c0,1.4.7,2.7,1.9,3.5.5.3,1,.6,1.6.9,1.9.7,4,.7,5.9,0,.5-.2,1.1-.5,1.5-.8,1.2-.8,1.9-2.1,1.9-3.5l-.3-1.4Z"/>
          <path class="cls-5" d="M175.7,259.3l-.8-3.4-9.4,3.3-.7,3.1h0l-.2.9-.3,1.3h0l-.6,2.6c5.3-1.5,9.7-4.3,12.1-7.9Z"/>
          <path class="cls-26" d="M142.8,270h-9.1c-1.3,7.9,2.9,13.9,4.6,13.9s5.8-6,4.5-13.9Z"/>
          <path class="cls-12" d="M142.8,270h-9.1c-1.3,7.9,2.9,13.9,4.6,13.9s5.8-6,4.5-13.9Z"/>
          <path class="cls-28" d="M138.3,270h1.6c.7,1.3,1,2.7.9,4.2-.2,2.1-1.5,4.9-2.4,4.9s-2.2-2.8-2.4-4.9c-.2-1.5.1-2.9.8-4.2h1.6"/>
          <path class="cls-26" d="M142.8,255.9h-8.6l-1.5,6.5c0,1.3.6,2.6,1.7,3.3.4.3.9.6,1.4.8,1.7.7,3.7.7,5.4,0,.5-.2,1-.5,1.4-.8,1.1-.7,1.8-2,1.7-3.3l-1.5-6.5Z"/>
          <path class="cls-19" d="M142.8,255.9h-8.6l-1.5,6.5c0,1.3.6,2.6,1.7,3.3.4.3.9.6,1.4.8,1.7.7,3.7.7,5.4,0,.5-.2,1-.5,1.4-.8,1.1-.7,1.8-2,1.7-3.3l-1.5-6.5Z"/>
          <path class="cls-26" d="M144.4,263v.3c0,0,.4,1.4.4,1.4,0,1.4-.7,2.7-1.9,3.5-.5.3-1,.6-1.5.8-1.9.7-4,.7-5.9,0-.6-.2-1.1-.5-1.6-.9-1.2-.8-1.9-2.1-1.9-3.5l-.9,3.7h0c0,1.4.9,2.7,2.1,3.4.6.4,1.2.7,1.8.9,2.1.7,4.4.7,6.6,0,.6-.2,1.2-.5,1.8-.9,1.2-.7,2-2,2.1-3.4l-1.2-5.3Z"/>
          <path class="cls-19" d="M144.4,263v.3c0,0,.4,1.4.4,1.4,0,1.4-.7,2.7-1.9,3.5-.5.3-1,.6-1.5.8-1.9.7-4,.7-5.9,0-.6-.2-1.1-.5-1.6-.9-1.2-.8-1.9-2.1-1.9-3.5l-.9,3.7h0c0,1.4.9,2.7,2.1,3.4.6.4,1.2.7,1.8.9,2.1.7,4.4.7,6.6,0,.6-.2,1.2-.5,1.8-.9,1.2-.7,2-2,2.1-3.4l-1.2-5.3Z"/>
          <path class="cls-30" d="M144.5,263.3v-.3c0,0-.2-.6-.2-.6,0,1.3-.6,2.6-1.7,3.3-.4.3-.9.6-1.4.8-1.7.7-3.7.7-5.4,0-.5-.2-1-.5-1.4-.8-1.1-.7-1.8-2-1.7-3.3l-.5,2.3c0,1.4.7,2.7,1.9,3.5.5.4,1,.6,1.6.9,1.9.7,4,.7,5.9,0,.5-.2,1.1-.5,1.5-.8,1.2-.8,1.9-2.1,1.9-3.5l-.3-1.4Z"/>
          <path class="cls-5" d="M134.2,255.9l-.8,3.4c2.4,3.5,6.7,6.4,12,7.9l-1-4.2v-.6h-.1l-1.5-6.5h-8.5Z"/>
          <path class="cls-26" d="M163.4,275.8l-8.9-2.3-8.9,2.3c-.7,4-.6,8.1.1,12.2,1.2,7.4,6.3,14.9,8.8,14.9s7.6-7.4,8.8-14.9c.7-4,.8-8.1.1-12.2Z"/>
          <path class="cls-14" d="M163.4,275.8l-8.9-2.3-8.9,2.3c-.7,4-.6,8.1.1,12.2,1.2,7.4,6.3,14.9,8.8,14.9s7.6-7.4,8.8-14.9c.7-4,.8-8.1.1-12.2Z"/>
          <path class="cls-26" d="M160.3,276.8h-12.1c-1.7,10.5,3.8,18.5,6.1,18.5s7.8-8,6.1-18.5Z"/>
          <path class="cls-28" d="M154.3,276.8h2.1c1,1.7,1.4,3.7,1.1,5.6-.2,2.8-1.9,6.5-3.2,6.5s-2.9-3.7-3.2-6.5c-.2-1.9.2-3.9,1.1-5.6h2.1"/>
          <path class="cls-26" d="M162.3,265.8l-1-4.2h-13.6l-1,4.2c0,1.8.8,3.5,2.3,4.4.6.4,1.2.8,1.9,1,2.3.9,4.9.9,7.2,0,.7-.3,1.3-.6,1.9-1,1.5-1,2.4-2.7,2.3-4.4Z"/>
          <path class="cls-22" d="M162.3,265.8l-1-4.2h-13.6l-1,4.2c0,1.8.8,3.5,2.3,4.4.6.4,1.2.8,1.9,1,2.3.9,4.9.9,7.2,0,.7-.3,1.3-.6,1.9-1,1.5-1,2.4-2.7,2.3-4.4Z"/>
          <path class="cls-26" d="M162.5,266.7v.4c0,0,.5,1.8.5,1.8,0,1.9-.9,3.6-2.5,4.6-.6.5-1.3.8-2,1.1-2.5.9-5.3.9-7.9,0-.7-.3-1.4-.7-2.1-1.1-1.6-1-2.5-2.8-2.5-4.6l-1.1,4.9h0c.1,1.9,1.2,3.6,2.8,4.6.8.5,1.6.9,2.4,1.2,2.8.9,5.9.9,8.8,0,.8-.3,1.7-.7,2.4-1.2,1.6-.9,2.7-2.7,2.8-4.6l-1.7-7.1Z"/>
          <path class="cls-22" d="M162.5,266.7v.4c0,0,.5,1.8.5,1.8,0,1.9-.9,3.6-2.5,4.6-.6.5-1.3.8-2,1.1-2.5.9-5.3.9-7.9,0-.7-.3-1.4-.7-2.1-1.1-1.6-1-2.5-2.8-2.5-4.6l-1.1,4.9h0c.1,1.9,1.2,3.6,2.8,4.6.8.5,1.6.9,2.4,1.2,2.8.9,5.9.9,8.8,0,.8-.3,1.7-.7,2.4-1.2,1.6-.9,2.7-2.7,2.8-4.6l-1.7-7.1Z"/>
          <path class="cls-30" d="M162.6,267.1v-.4c0,0-.3-.8-.3-.8,0,1.8-.8,3.5-2.3,4.4-.6.4-1.2.7-1.9,1-2.3.9-4.9.9-7.2,0-.7-.2-1.3-.6-1.9-1-1.5-1-2.3-2.7-2.3-4.4l-.7,3c0,1.9.9,3.6,2.5,4.6.6.5,1.3.9,2.1,1.1,2.5.9,5.3.9,7.9,0,.7-.3,1.4-.7,2-1.1,1.5-1,2.5-2.8,2.5-4.6l-.4-1.8Z"/>
          <path class="cls-5" d="M154.5,268.4c2.8,0,5.5-.3,8.2-1v-.4c0,0-.2-.4-.2-.4l-.2-.8-1-4.2h-13.6l-1,4.2-.4,1.6c2.7.7,5.4,1,8.1,1Z"/>
          <path class="cls-24" d="M146.1,228.2l-26.4-9.7c0-1.1,0-2.3.1-3.4,0-.4,0-.7.1-1s.1-.6.2-.9.1-.6.2-.9v-.5c.1,0,.2-.3.2-.3h0c.6-1.8,1.8-3.4,3.5-4.3l3.4-2,.4-.2c1.1-.6,2.2-1,3.5-1.1,2.6-.3,5.1-.9,7.5-1.8.7-.6,1.4-1.3,1.9-2.1,2.6-3.9,3.2-12.4,3.1-16.6l3.8-2.2,2.3,44.9-3.9-1.4h0c0,.1.2,3.7.2,3.7Z"/>
          <path class="cls-25" d="M119.8,218.5l26.4,9.7-.2-3.5h0c0-.1-1.4-27.1-1.4-27.1l-.7-14.3c.2,4.2-.5,12.7-3.1,16.6-.5.8-1.2,1.5-1.9,2.1-2.6,2.2-6.5,3.3-11.3,4-.5,0-1,.2-1.4.3-.7.2-1.4.5-2,.8-1.7,1-2.9,2.5-3.5,4.3h0v.3c-.1,0-.2.5-.2.5,0,.3-.2.6-.2.9s-.1.6-.2.9-.1.7-.1,1c-.1,1.1-.2,2.3-.1,3.4Z"/>
          <path class="cls-26" d="M145.8,220.7l-25.1-9.2c-.4,1.2-.7,2.4-.8,3.7l26.1,9.6-.2-4.1Z"/>
          <path class="cls-3" d="M145.8,220.7l-25.1-9.2c-.4,1.2-.7,2.4-.8,3.7l26.1,9.6-.2-4.1Z"/>
          <path class="cls-30" d="M166.7,219.6c3.3,10.7,6.7,21.4,10.3,32.1.5,2.1-.2,4.4-1.9,5.8-5.7,4.8-13,7.4-20.5,7.3-7.5,0-14.8-2.7-20.5-7.6-1.7-1.3-2.5-3.6-2-5.7,3.6-10.5,7-21,10.3-31.6l24.4-.2Z"/>
          <path class="cls-25" d="M154.5,256.3c7.8.2,15.5-2.5,21.4-7.6l1,2.9c.5,2.1-.2,4.4-1.9,5.8-5.7,4.8-13,7.4-20.5,7.3-7.5,0-14.8-2.7-20.5-7.6-1.7-1.3-2.5-3.6-2-5.7.4-1.1.6-1.7,1-2.9,5.9,5.2,13.8,7.5,21.5,7.8Z"/>
          <path class="cls-25" d="M154.5,231.6c-5.1.1-10.2-.7-15.1-2.5,1.2-3.7,1.8-5.6,2.9-9.3h11c0-.1,1.2-.1,1.2-.1h12.2c1.2,3.7,1.7,5.6,2.9,9.3-4.9,1.8-10,2.7-15.2,2.6Z"/>
          <path class="cls-30" d="M162.3,219.6c.4,3,.9,7,1.4,11.1,1.4-.3,2.7-.6,4.1-1.1-.7-4-1.1-6-1.8-10.1h-3.7Z"/>
          <path class="cls-30" d="M134,257.1c5.7,4.9,13,7.5,20.5,7.6h3c0,0,.7-.2.7-.2h1.1c.2-.1.5-.2.7-.2s.5,0,.7-.1l1.2-.2h.2c.4-.2.9-.3,1.3-.4s1-.3,1.6-.5c.3,0,.6-.2.9-.3s.8-.3,1.1-.4c.7-.3,1.4-.6,2-.9l.5-.2c.2,0,.4-.2.6-.3l.8-.4.8-.5.8-.5.7-.5c-.5-2.8-.8-4.3-1.3-7.2-1.6,1-3.3,1.8-5,2.4.2,1.4.4,2.5.4,2.7-1.9,7.3-19.2,8.5-33,.2Z"/>
          <path class="cls-16" d="M163.7,230.7c1,7.8,2,15.7,3,23.5,1.7-.6,3.4-1.5,5-2.4-1.3-7.4-2.7-14.8-4-22.2-1.3.4-2.6.8-4,1.1Z"/>
          <path class="cls-24" d="M162,228.2l26.4-9.7c0-1.1,0-2.3-.1-3.4,0-.4,0-.7-.1-1s-.1-.6-.2-.9-.1-.6-.2-.9v-.5c-.1-.1-.2-.2-.2-.3h0c-.6-1.8-1.8-3.4-3.5-4.3l-3.4-2-.4-.2c-1.1-.6-2.2-1-3.5-1.1-2.6-.3-5.1-.9-7.5-1.8-.7-.6-1.4-1.3-1.9-2.1-2.6-3.9-3.2-12.4-3.1-16.6l-3.8-2.2-2.3,44.9,3.9-1.4h0c0,.1-.2,3.7-.2,3.7Z"/>
          <path class="cls-25" d="M188.4,218.5l-26.4,9.7.2-3.5h0c0-.1,1.4-27.1,1.4-27.1l.8-14.3c-.2,4.2.5,12.7,3.1,16.6.5.8,1.2,1.5,1.9,2.1,2.6,2.2,6.5,3.3,11.3,4,.5,0,1,.2,1.4.3.7.2,1.4.5,2,.8,1.7,1,2.9,2.5,3.5,4.3h0c0,.1,0,.2.1.3v.5c.2.3.3.6.4.9s.1.6.2.9.1.7.1,1c.1,1.1.2,2.3.1,3.4Z"/>
          <path class="cls-26" d="M162.4,220.7l25.1-9.2c.4,1.2.7,2.4.8,3.7l-26.1,9.6.2-4.1Z"/>
          <path class="cls-3" d="M162.4,220.7l25.1-9.2c.4,1.2.7,2.4.8,3.7l-26.1,9.6.2-4.1Z"/>
          <path class="cls-26" d="M180.7,138.4c0-1.9,0-3.8-.5-5.7-3.6-16.9-13.7-30.7-19.5-39.7-1.1-1.6-3.4-5.4-4.3-6-1.2-.8-2.7-.8-3.9,0-.9.7-3.2,4.4-4.3,6-5.4,7.9-15.9,22.8-19.5,39.7-.4,1.9-.5,3.8-.5,5.7l3.3,94.4h0c0,4.7,4.3,9.4,12.9,11.9,6.5,1.9,13.5,1.9,20.1,0,8.6-2.6,12.9-7.3,12.9-11.9h0l3.3-94.5Z"/>
          <path class="cls-22" d="M180.7,138.4c0-1.9,0-3.8-.5-5.7-3.6-16.9-13.7-30.7-19.5-39.7-1.1-1.6-3.4-5.4-4.3-6-1.2-.8-2.7-.8-3.9,0-.9.7-3.2,4.4-4.3,6-5.4,7.9-15.9,22.8-19.5,39.7-.4,1.9-.5,3.8-.5,5.7l3.3,94.4h0c0,4.7,4.3,9.4,12.9,11.9,6.5,1.9,13.5,1.9,20.1,0,8.6-2.6,12.9-7.3,12.9-11.9h0l3.3-94.5Z"/>
          <path class="cls-20" d="M180.3,132.7c-3.6-16.9-13.7-30.7-19.5-39.7l-.9-1.3h0c4.8,12.1,12.3,31.6,12.8,58.8.3,16.1-.9,59.1-1.9,91.8h0c1-.6,2-1.2,2.9-2h0c.5-.5,1-1,1.5-1.6l.2-.2c.1-.1.2-.3.3-.5,0,0,.1-.2.2-.3.1-.2.3-.4.4-.7s.1-.3.2-.4.1-.2.2-.3.1-.3.2-.5,0-.2.1-.3.1-.5.2-.7c0,0,0-.1,0-.2s0-.4.1-.6v-.2c0-.3,0-.5,0-.8h0l3.3-94.4c.1-1.9,0-3.9-.4-5.8Z"/>
          <path class="cls-30" d="M134.3,142.3c11.1,6.4,29,6.4,40,0,2.5-1.4,4.7-3.3,6.4-5.7,0-1.4-.2-2.8-.5-4.2-.1-.7-.3-1.5-.5-2.2-1.5,1.7-3.4,3.2-5.4,4.3-11.1,6.4-29,6.4-40,0-1.9-1.1-3.6-2.4-5.1-4-.1.6-.3,1.2-.4,1.9-.3,1.6-.5,3.1-.5,4.7,1.6,2.1,3.7,3.8,6,5.1Z"/>
          <path class="cls-16" d="M180.7,136.6c0-1.3-.2-2.7-.5-4-.2-.8-.4-1.6-.6-2.4-1.5,1.7-3.3,3.2-5.3,4.3-.9.5-1.7.9-2.6,1.3.3,2.4.5,4.9.7,7.4.7-.3,1.3-.7,2-1,2.5-1.4,4.7-3.3,6.3-5.6Z"/>
          <path class="cls-5" d="M156.2,86.8c-.5-.3-1.1-.4-1.6-.4-.7,0-1.4.2-1.9.6-.9.7-3.2,4.4-4.3,6-5.4,7.9-15.9,22.8-19.5,39.7-.4,1.9-.5,3.8-.5,5.7l3.3,94.4c0,4.7,4.3,9.4,12.9,11.9.1,0,.2,0,.4,0-1.7-39.3-9.4-103.2-1.6-128.7,4.2-13.9,10.1-30.4,12.9-29.4Z"/>
          <path class="cls-16" d="M159.9,91.6c1.6,4.1,3.5,9,5.4,14.7,1.1-.6,2-1.3,2.9-1.9-2.1-3.4-4.1-6.4-5.9-9.2l-1.5-2.2-.6-.9-.3-.4Z"/>
          <path class="cls-30" d="M143.3,238.9l-26.4,20.8-3.7-2.2c-.2-7.6,2.3-14.4,7.8-21.5,2.4-3,4.5-5.9,6.4-8.6,2.9-3.8,5.4-7.8,7.7-12,3.2-6.3,4-10.2,3.9-14.5,0-.1,0-.3,0-.4v-.4l2,1,2.3,37.8Z"/>
          <path class="cls-26" d="M114,249.5c-.4,1.5-.6,3-.8,4.6l3.7,2.1h0c.1-1.6.4-3.1.8-4.5h0l-3.7-2.2Z"/>
          <path class="cls-21" d="M114,249.5c-.4,1.5-.6,3-.8,4.6l3.7,2.1h0c.1-1.6.4-3.1.8-4.5h0l-3.7-2.2Z"/>
          <path class="cls-24" d="M140.9,201.1c.2,4-.5,8.9-3.1,15.8-2.4,6.4-7,13.4-13.2,21.3-5.5,7.1-8,13.9-7.8,21.5l26.4-20.8-2.3-37.9Z"/>
          <path class="cls-26" d="M142.9,231.9l-25.1,19.8c-.4,1.5-.6,3-.8,4.6l26.1-20.5-.2-3.8Z"/>
          <path class="cls-30" d="M164.9,238.9l26.4,20.8,3.7-2.2c.2-7.6-2.3-14.4-7.8-21.5-2.4-3-4.5-5.9-6.4-8.6-2.9-3.8-5.4-7.8-7.6-12-3.2-6.3-4-10.2-3.9-14.5,0-.1,0-.3,0-.4v-.4l-2,1-2.3,37.8Z"/>
          <path class="cls-26" d="M194.2,249.5c.4,1.5.6,3,.8,4.6l-3.8,2.2h0c-.1-1.6-.4-3.1-.8-4.5h0l3.8-2.2Z"/>
          <path class="cls-21" d="M194.2,249.5c.4,1.5.6,3,.8,4.6l-3.8,2.2h0c-.1-1.6-.4-3.1-.8-4.5h0l3.8-2.2Z"/>
          <path class="cls-24" d="M167.2,201.1c-.2,4,.5,8.9,3.1,15.8,2.4,6.4,7,13.4,13.2,21.3,5.5,7.1,8,13.9,7.8,21.5l-26.4-20.8,2.3-37.9Z"/>
          <path class="cls-26" d="M165.3,231.9l25.1,19.8c.4,1.5.6,3,.8,4.6l-26.1-20.5.2-3.8Z"/>
          <path class="cls-24" d="M133.3,147.5c.8.6,1.4,1.5,1.4,2.5,0,.9-.6,1.3-1.4.8-.8-.5-1.4-1.5-1.4-2.5,0-.9.6-1.3,1.4-.8Z"/>
          <path class="cls-24" d="M133.2,153.4c.8.5,1.3,1.4,1.4,2.4,0,.9-.6,1.2-1.4.8-.8-.5-1.3-1.4-1.4-2.4,0-.9.6-1.2,1.4-.8Z"/>
          <path class="cls-24" d="M133.3,159.3c.8.5,1.2,1.3,1.3,2.2,0,.8-.6,1.1-1.3.7-.8-.5-1.2-1.3-1.3-2.2,0-.8.6-1.2,1.3-.7Z"/>
          <path class="cls-24" d="M133.4,165.2c.7.5,1.2,1.2,1.2,2.1,0,.8-.5,1.1-1.2.7-.7-.5-1.2-1.2-1.2-2.1,0-.8.5-1.1,1.2-.7Z"/>
          <path class="cls-24" d="M133.6,171c.7.4,1.1,1.2,1.1,2,0,.7-.5,1-1.1.7-.7-.4-1.1-1.2-1.1-2,0-.7.5-1,1.1-.7Z"/>
          <path class="cls-24" d="M133.9,176.9c.6.4,1,1.1,1.1,1.8,0,.7-.5.9-1.1.6-.6-.4-1-1.1-1.1-1.8,0-.7.5-.9,1.1-.6Z"/>
          <path class="cls-24" d="M134.1,182.8c.6.4,1,1,1,1.7,0,.6-.4.9-1,.6-.6-.4-1-1-1-1.7,0-.6.5-.9,1-.6Z"/>
          <path class="cls-30" d="M175.8,147.5c-.8.6-1.4,1.5-1.4,2.5,0,.9.6,1.3,1.4.8.8-.6,1.4-1.5,1.4-2.5,0-.9-.6-1.3-1.4-.8Z"/>
          <path class="cls-30" d="M175.9,153.4c-.8.5-1.3,1.4-1.4,2.4,0,.9.6,1.2,1.4.8.8-.5,1.3-1.4,1.4-2.4,0-.9-.6-1.2-1.4-.8Z"/>
          <path class="cls-30" d="M175.8,159.3c-.8.5-1.2,1.3-1.3,2.2,0,.8.6,1.1,1.3.7.8-.5,1.2-1.3,1.3-2.2,0-.8-.6-1.1-1.3-.7Z"/>
          <path class="cls-30" d="M175.6,165.2c-.7.5-1.2,1.2-1.2,2.1,0,.8.5,1.1,1.2.7.7-.5,1.2-1.2,1.2-2.1,0-.8-.6-1.1-1.2-.7Z"/>
          <path class="cls-30" d="M175.4,171c-.7.4-1.1,1.2-1.1,2,0,.7.5,1,1.1.7.7-.4,1.1-1.2,1.1-2,0-.7-.5-1-1.1-.7Z"/>
          <path class="cls-30" d="M175.2,176.9c-.6.4-1,1.1-1.1,1.8,0,.7.5.9,1.1.6.6-.4,1-1.1,1.1-1.8,0-.7-.5-.9-1.1-.6Z"/>
          <path class="cls-30" d="M174.9,182.8c-.6.4-1,1-1,1.7,0,.6.4.9,1,.6.6-.4,1-1,1-1.7,0-.6-.5-.9-1-.6Z"/>
          <circle class="cls-24" cx="154.5" cy="173.8" r="10.6"/>
          <circle class="cls-26" cx="154.5" cy="173.8" r="7.7"/>
        </g>
      </g>
      <g id="freepik--speech-bubble--inject-490">
        <g id="freepik--speach-bubble--inject-490">
          <path class="cls-26" d="M384.3,135.9l-3.2-9.2,2.6-7.5v-4.6l-7.9,4.6v4.6l3.4,9c0,0,.1.2.2.2h0l4.9,2.9Z"/>
          <path class="cls-6" d="M384.3,135.9l-3.2-9.2,2.6-7.5v-4.6l-7.9,4.6v4.6l3.4,9c0,0,.1.2.2.2h0l4.9,2.9Z"/>
          <path class="cls-26" d="M403.3,78.2c0-1.7-1-3.2-2.4-4.1l-1.9-1.1c-1.5-.8-3.3-.8-4.8,0l-29.8,17.1c-1.4.9-2.3,2.5-2.4,4.1v32.7c0,1.7,1,3.2,2.4,4.1l1.9,1.1c1.5.7,3.3.7,4.8,0l9.5-5.5,3.4,9c.1.2.5.3.7.2.1,0,.2-.2.2-.3l3.6-13.5,12.2-7.1c1.4-.9,2.3-2.4,2.4-4.1v-32.7Z"/>
          <path class="cls-6" d="M362.1,127c0,1.7,1,3.2,2.4,4.1l1.9,1.1c1.4.7,2.9.7,4.4.2-1.1.4-2-.2-2-1.6v-32.7c0-.8.3-1.6.7-2.3l-6.7-3.9c-.4.7-.7,1.5-.7,2.3v32.7Z"/>
          <path class="cls-17" d="M403.2,77.5c-.3-1-1.2-1.3-2.3-.7l-29.7,17.2c-.7.4-1.3,1-1.7,1.8l-6.7-3.9c.4-.7,1-1.3,1.7-1.8l29.7-17.1c1.5-.8,3.3-.8,4.8,0l1.9,1.1c1.2.8,2,2,2.3,3.4Z"/>
          <path class="cls-28" d="M398,101.4h-2.4c-.2-.1-.4-.3-.4-.5,0,0,0,0,0,0,0-.3,0-.7,0-1.1s0-.8,0-1.1c0-.2,0-.5.2-.7l2.5-3.1c.1-.2.2-.4.1-.6l-1.2-2.7s0,0,0,0h0c0,0-.2,0-.4.1l-2.7,2.5c-.1.2-.4.2-.6,0-.3-.3-.7-.5-1.2-.7-.2,0-.3-.3-.3-.5l.8-3.8c0-.1,0-.2-.1-.3,0,0-.2,0-.2,0l-2.6.3c-.3,0-.5.2-.6.4l-1.4,3.9c-.1.2-.3.4-.6.6-.6.3-1.1.6-1.6,1-.2.2-.5.2-.6,0l-1.4-2.1c0-.2-.3-.1-.5,0l-2.9,3.1c-.2.2-.2.4-.2.6l.8,2.8c0,.2,0,.5-.1.7-.5.7-.9,1.5-1.3,2.3-.1.2-.4.4-.6.5l-2.5.6c-.2,0-.5.2-.6.5l-1.2,4.2c0,.2,0,.3.2.4,0,0,0,0,0,0h2.3c.2.1.4.3.4.5,0,.7,0,1.5,0,2.2,0,.2,0,.5-.2.7l-2.6,2.9c-.2.2-.2.4-.2.6l1.2,2.7s0,0,0,0h0s0,0,.1,0h0c.1,0,.2,0,.3-.1l2.7-2.5c.2-.2.4-.2.6,0,.3.3.7.5,1.2.7.2,0,.3.3.3.5l-.8,3.8c0,.1,0,.2.1.3h0c0,0,.2,0,.2,0l2.6-.3c.2,0,.5-.2.6-.4l1.4-3.9c.1-.2.3-.4.6-.6.3-.1.6-.3.8-.4s.5-.3.8-.5.5-.2.6,0l1.4,2.1s0,0,0,0c.1,0,.3,0,.4-.1l2.9-3.1c.2-.2.2-.4.2-.6l-.8-2.8c0-.2,0-.5.1-.7.5-.7.9-1.5,1.3-2.3.1-.2.4-.4.6-.5l2.5-.6c.3,0,.5-.2.6-.5l1.2-4.2c0,0,0-.2,0-.3ZM384.7,111.7h-1c-1.1,0-2.1-.7-2.5-1.7-.2-.4-.3-.9-.4-1.4,0-.3,0-.5,0-.8.2-2.8,1.3-5.5,3.3-7.5.6-.6,1.3-1.2,2-1.6.2-.1.4-.2.7-.3.6-.3,1.2-.4,1.9-.4h.3c1,.2,1.7.9,2,1.8,1.1,2.5-.2,6.8-2.9,9.7-.9,1.1-2.1,1.8-3.4,2.2h0Z"/>
        </g>
      </g>
      <g id="freepik--Character--inject-490">
        <g id="freepik--Briefcase--inject-490">
          <path class="cls-26" d="M451.5,347.7v35.8c-.1,2-1.2,3.8-2.8,4.9l-3.4,2c-1.2.6-2.6.8-4,.6-.6,0-1.1-.3-1.6-.5h-.3c0-.1-39.7-23-39.7-23-2.9-1.7-4.7-4.8-4.7-8.1v-33.7c0-.8.5-1.6,1.2-2.1l6.6-3.8c.8-.4,1.6-.4,2.4,0l45,26c.4.2.7.5.9.9.2.4.4.8.4,1.2Z"/>
          <path class="cls-6" d="M451.5,347.7v35.8c-.1,2-1.2,3.8-2.8,4.9l-3.4,2c-1.2.6-2.6.8-4,.6-.6,0-1.1-.3-1.6-.5h0c1.5.7,2.8,0,2.8-1.9v-34.8c0-.6-.2-1.3-.5-1.8l9.2-5.3c.2.4.3.7.4,1.2Z"/>
          <path class="cls-3" d="M442.4,353.6c0-1.3-.7-2.5-1.8-3.2l-42.6-24.6c-1.7-1-3.1-.2-3.1,1.8v31.5c0,3.4,1.8,6.4,4.7,8.1l39.7,22.9c1.7,1,3.1.2,3.1-1.8v-34.8Z"/>
          <path class="cls-10" d="M395,337.2c.1,2.5,1.4,4.7,3.5,6l40.5,23.4c1.9,1.1,3.5.2,3.5-2v-12c0-.7.4-1.3,1-1.7l6.2-3.6-46.8-27.8-6.9,4c-.6.3-1,1-1,1.7v12Z"/>
          <path class="cls-26" d="M402.8,319.6l-6.9,4c-.3.2-.6.4-.7.8l47.5,27.3c.2-.3.4-.5.7-.7l6.2-3.6-46.8-27.8Z"/>
          <path class="cls-24" d="M415.5,350.4l6.3,3.6c1,.7,1.7,1.8,1.8,3v1.4c0,1.1-.8,1.6-1.7,1l-6.3-3.6c-1-.7-1.7-1.8-1.7-3v-1.4c0-1.1.8-1.6,1.8-1Z"/>
          <path class="cls-25" d="M418.2,325.8v5l-2.9,1.7v-7.6c0-.4.3-.5.6-.4l2.3,1.3Z"/>
          <path class="cls-30" d="M433.3,331.1v9.3l-2.1,1.2-1.4-.8v-7.6c0-.4-.3-.8-.6-1.1l-10.9-6.3-2.3-1.3c-.3-.2-.6,0-.6.4v7.6l-1.5-.8v-9.2h0c0-.5.3-.8.6-1.1l.9-.5c.4-.2.8-.2,1.2,0l16,9.2c.4.2.6.6.6,1.1Z"/>
          <path class="cls-24" d="M431.2,332.3v9.3l-1.4-.8v-7.6c0-.4-.3-.8-.6-1.1l-10.9-6.3-2.3-1.3c-.3-.2-.6,0-.6.4v7.6l-1.5-.8v-9.2h0c0-.4.3-.5.6-.4l16,9.3c.4.2.6.6.7,1.1Z"/>
        </g>
        <g id="freepik--character--inject-490">
          <path class="cls-25" d="M406.1,376.5c.7.2,1.1,1.5,1.4,4.6.2,1.9.8,4.4-2.1,6-2.2,1.1-4.8,1.1-6.9,0-2.5-1.6-3.3-5.1-6.3-7.5-2.6-2-6.8-4.1-8.2-7.2-1.2-2.6-1.2-6.3,3.1-6.1,5.2.2,8.2,4.4,11.8,4.5,2,0,6.6,5.5,7.2,5.8Z"/>
          <path class="cls-29" d="M406.1,374.9v3.1c0,1.5-6.5,3.8-8.3.3-.1-.3-.8-4.6-.8-4.6l9.1,1.1Z"/>
          <path class="cls-25" d="M376.1,394.6s1.2,0,1.7,5c.2,1.9.6,5.8,0,7.3s-4.2,2-8.2,2.4c-3,.3-5.6,1.7-8.4,3.2-2.6,1.5-5.5,2.3-8.5,2.3-3.8,0-6.9-.4-9.6-2.5-1.4-1.1-3.2-3.5-1.9-5.3.5-.5,1.2-.9,2-1.1,1.7-.6,3.4-1.2,5.1-1.7,2.6-.8,5-1.7,7.4-2.9,3.5-1.7,7.4-3.7,10.1-6.6l10.3-.2Z"/>
          <path class="cls-29" d="M376,392v3.6c0,1.3-1.5,3.3-5.6,3.2-2.8,0-4.8-.8-4.7-3.2v-3.4l10.3-.3Z"/>
          <path class="cls-24" d="M407.9,333.6c-.7-5.5-2-10.9-3.8-16.2,0,0,1-14,1.5-27.3.4-13.6,0-27.2-1.1-40.8,0,0-45.1-4.3-45.9,12.3-.8,16.6.3,58.7.9,66s1.2,14.1,2.7,27.6c1.3,11.7,3.5,37,3.5,37,3.3,1.6,7.1,1.5,10.2-.3,0,0,3.4-34,3.8-42.4.5-10.9-2-16.9-2-16.9,0,0,1-6.9,2.6-20.9,1.2-10,2.8-21.3,2.8-21.3,0,0,1.5,14,2.5,21.8.9,7.2,2.3,13,4.5,26.5,1.9,11.7,7,36.5,7,36.5,5.3,2.8,8.9-.4,8.9-.4,0,0,3.3-31.2,1.9-41.3Z"/>
          <path class="cls-25" d="M383.2,290.5l2.1-13.9s8.8-2.8,13.2-8c0,0-2.4,6.1-10.6,9.4l-3.3,11.7-.6,9.6-1-8.8Z"/>
          <path class="cls-26" d="M395.2,193.8c7-1.7,11.5,1.7,14.1,11.3,2.2,8.2,5.5,25.2,6.7,31.5.5,2.4,1.4,5-3.5,8-7.2,4.1-14.6,7.9-22.1,11.2l-2.7-10.1,10.9-22.3-3.3-29.5Z"/>
          <path class="cls-2" d="M395.2,193.8c7-1.7,11.5,1.7,14.1,11.3,2.2,8.2,5.5,25.2,6.7,31.5.5,2.4,1.4,5-3.5,8-7.2,4.1-14.6,7.9-22.1,11.2l-2.7-10.1,10.9-22.3-3.3-29.5Z"/>
          <polygon class="cls-29" points="375.8 189.3 377.9 204.1 391.2 203.6 389.9 186.4 375.8 189.3"/>
          <path class="cls-27" d="M366.2,171s-3.6,5.2-3.2,5.8,3,1,3,1l.2-6.8Z"/>
          <path class="cls-25" d="M367.4,174.5c-2.4,0-4.3-2-4.3-4.4,0-2.4,2-4.3,4.4-4.3,2.4,0,4.3,2,4.3,4.4,0,2.4-2,4.3-4.4,4.3,0,0,0,0,0,0ZM367.5,166.7c-1.9,0-3.4,1.5-3.4,3.3,0,1.9,1.5,3.4,3.3,3.4,1.9,0,3.4-1.5,3.4-3.3,0,0,0,0,0,0,0-1.9-1.5-3.4-3.3-3.4,0,0,0,0,0,0h0Z"/>
          <path class="cls-29" d="M376.1,156.6c-7.1,1.4-9.2,4.4-10,15.6-.9,11.7.2,15.4,1.8,17,1,1.1,6.8,1.4,9.7.6,3.7-1,12-3.7,15.9-9.6,4.6-6.9,6-16.2,1.2-20.2-6.7-5.5-15.7-4.1-18.6-3.5Z"/>
          <path class="cls-27" d="M375.9,190.1c-3,.3-7.1,0-8-.9,2.6,0,5.2-.5,7.6-1.5l.4,2.4Z"/>
          <path class="cls-25" d="M366,159.3c.2.3.4.6.6.9,1.2,1.6,2.5,3,4.1,4.2,1.2,1.1,2.1,2.5,2.5,4.1.5,1.7.6,3.7,2.5,4.5,0,0,1.2-4.5,5-3.9s4.3,5.6,1.8,8.5-4.7,1.8-4.7,1.8c0,0,0,6.5,2.8,10.2,0,0,3.2,1.1,9.3,0,3.7-.7,9-5.3,11.3-10.1,4.8-10.3,5.3-19.6-1.3-22.5-.1,0-.6-2.4-.8-2.8-.4-.8-1-1.6-1.6-2.2-1.5-1.4-3.4-2.4-5.4-2.7-5.4-.8-10.8.3-16.1-.8-2.4-.5-4.9-1.4-7.2-.7-2.3.9-3.9,3-4.1,5.5-.1,2.1.4,4.2,1.5,5.9Z"/>
          <path class="cls-25" d="M399,159.3l4.3-2.4c-.7-1.2-2.2-1.6-3.3-.9s-1.6,2.2-.9,3.3Z"/>
          <path class="cls-25" d="M375.6,175.6l.2-4.9c-1.4,0-2.5,1-2.6,2.3s1,2.5,2.3,2.6h0Z"/>
          <polygon class="cls-25" points="363.5 169.1 376.6 171.1 376.1 172 363.5 170.1 363.5 169.1"/>
          <path class="cls-26" d="M405.9,201.6c-1.5-6.1-3.8-8.1-9-8.2-2.7.2-5.4.5-8.1,1-.6,2.6-7.2,4.3-13.9,2.9-2,.6-7.3,2-8.9,2.6-4.8,1.7-7,6.6-7.4,22.3,0,0-.9,37.1,0,43.6,12,4.7,24.4,4.5,31.3,2.9,14.3-3.2,16-9.1,16-9.1,0,0-.8-14.9-1.2-26.2.7-7.2,1.8-12.6,2.2-18.4.3-4.5,0-9-.9-13.4Z"/>
          <path class="cls-4" d="M405.9,201.6c-1.5-6.1-3.8-8.1-9-8.2-2.7.2-5.4.5-8.1,1-.6,2.6-7.2,4.3-13.9,2.9-2,.6-7.3,2-8.9,2.6-4.8,1.7-7,6.6-7.4,22.3,0,0-.9,37.1,0,43.6,12,4.7,24.4,4.5,31.3,2.9,14.3-3.2,16-9.1,16-9.1,0,0-.8-14.9-1.2-26.2.7-7.2,1.8-12.6,2.2-18.4.3-4.5,0-9-.9-13.4Z"/>
          <path class="cls-26" d="M390.2,190.6v1.4c.1,0-.6,2-4.6,2.8-6.8,1.3-9.2-.9-9.2-.9l-.2-1.2s-.7-.3-1.8.6c-1.7,1.7-3.2,3.6-4.7,5.5,0,0,1.3-.4,5.5,1.4,4.2,1.6,8.9,1.8,13.2.5,2.5-.8,4.3-2.9,4.8-5.4.2-1.2-2-5.2-3.2-4.7Z"/>
          <path class="cls-2" d="M390.2,190.6v1.4c.1,0-.6,2-4.6,2.8-6.8,1.3-9.2-.9-9.2-.9l-.2-1.2s-.7-.3-1.8.6c-1.7,1.7-3.2,3.6-4.7,5.5,0,0,1.3-.4,5.5,1.4,4.2,1.6,8.9,1.8,13.2.5,2.5-.8,4.3-2.9,4.8-5.4.2-1.2-2-5.2-3.2-4.7Z"/>
          <path class="cls-29" d="M367.1,199.5c-9.5,1-10.3,3.7-13.6,14-3.1,9.8-6.6,22.8-7.2,25.1-.7,3.2-.6,12.2,1.6,14.2s6.6,5.4,10.6-5.2c3.6-9.7,9.2-25.6,9.2-25.6,0,0,4-13.9-.6-22.6Z"/>
          <path class="cls-24" d="M344.7,216.8l-8.5-26.2c0-.1-.2-.3-.3-.3l-1.1-.4c-.1,0-.3,0-.4,0l-12.9,7.5c-.3.2-.4.5-.3.8l9.4,25.8c0,.2.3.4.6.3,0,0,0,0,.1,0l.4-.2v.3c.2.2.5.4.7.3,0,0,0,0,.1,0l12.1-7c.3-.2.4-.5.3-.8Z"/>
          <path class="cls-30" d="M335.5,190.3l-12.9,7.5c-.3.2-.4.5-.3.8l9.4,25.7c0,.2.3.4.6.3,0,0,0,0,.1,0l12.1-7c.3-.2.4-.5.3-.8l-8.5-26.2c0-.2-.3-.4-.5-.3,0,0,0,0-.1,0Z"/>
          <polygon class="cls-28" points="324.2 200.1 336 193.4 343.1 215.3 332 221.6 324.2 200.1"/>
          <path class="cls-24" d="M328.9,196.2c-.1,0-.2,0-.2-.1,0-.1,0-.3.1-.4l2.9-1.7c.1,0,.3,0,.4.1,0,.1,0,.3-.1.4h0l-2.9,1.7s0,0-.1,0Z"/>
          <path class="cls-24" d="M328.1,196.5c0,.2-.1.3-.3.3-.2,0-.3-.1-.3-.3,0-.1.1-.3.3-.3.2,0,.3.1.3.3Z"/>
          <path class="cls-24" d="M339,219.6c0,.4-.3.7-.7.7-.4,0-.7-.3-.7-.7s.3-.7.7-.7c0,0,0,0,0,0,.4,0,.7.3.7.7,0,0,0,0,0,0Z"/>
          <path class="cls-29" d="M330.5,215.1c.1-.9.3-1.9.6-2.8.3-.9.8-1.7,1.6-2.4.4-.4.9-.5,1.5-.3.3.2.5.5.5.8,0,.3,0,.7-.1,1-.2,1.4-.2,2.7.2,4.1.2.6.5,1.2.7,1.9.2.7.4,1.4.4,2.2.3,1.4.8,2.7,1.5,3.8,1.2,1.8,16.8,17.3,16.8,17.3l-2.4,14.3c-4.3.4-14.4-14-17.7-18.7-3.2-4.5-6-7.4-9-11.2-2.3-3-3.8-11.7-3.1-17.3.1-1.3.6-2.5,1.4-3.5l2.8,7.7,2.4,3.8c.3.5,1,1,1.6.5.3-.3.4-.7.5-1.1Z"/>
          <path class="cls-26" d="M367.9,199.3s-5.2,0-8.9,2-5.5,9.7-6.6,13.4-4.9,18.3-4.9,18.3l-8.1-7.4s-5.1,1.5-6.8,8.5c0,0,2.6,4,7.2,10.6s9.5,11.8,12.9,11,5.4-4.5,8.8-13.1,7.9-23.4,7.9-23.4c0,0,2.6-12.4-1.5-19.9Z"/>
          <path class="cls-2" d="M367.9,199.3s-5.2,0-8.9,2-5.5,9.7-6.6,13.4-4.9,18.3-4.9,18.3l-8.1-7.4s-5.1,1.5-6.8,8.5c0,0,2.6,4,7.2,10.6s9.5,11.8,12.9,11,5.4-4.5,8.8-13.1,7.9-23.4,7.9-23.4c0,0,2.6-12.4-1.5-19.9Z"/>
          <path class="cls-2" d="M347.5,233.1s-.9,2.9-1.6,6.1c0-2.3.2-4.7.6-6.9l1,.9Z"/>
        </g>
      </g>
    </g>
  </g>
</svg>