<?xml version="1.0" encoding="UTF-8"?>
<svg xmlns="http://www.w3.org/2000/svg" xmlns:svg="http://www.w3.org/2000/svg" xmlns:rdf="http://www.w3.org/1999/02/22-rdf-syntax-ns#" xmlns:dc="http://purl.org/dc/elements/1.1/" xmlns:cc="http://creativecommons.org/ns#" version="1.1" viewBox="0 0 267.5 65.3">
  <defs>
    <style>
      .cls-1 {
        fill: #fff;
      }
    </style>
  </defs>
  <!-- Generator: Adobe Illustrator 28.7.0, SVG Export Plug-In . SVG Version: 1.2.0 Build 23)  -->
  <g>
    <g id="svg20">
      <path id="path18" class="cls-1" d="M263,56.4c-2.4,0-4.4,2-4.4,4.5,0,2.4,2,4.4,4.5,4.4s4.4-2,4.4-4.5c0-2.4-2-4.4-4.4-4.4h0M263,64.7c-2.1,0-3.9-1.7-3.9-3.8,0-2.1,1.7-3.9,3.8-3.9,2.1,0,3.9,1.7,3.9,3.8h0c0,2.2-1.6,3.9-3.7,3.9h-.1M246.1,55.2h-9.6v-15c0-3.6,0-8.2-5-8.2s-5.8,3.9-5.8,7.9v15.3h-9.6v-30.9h9.2v4.2h.1c1.9-3.2,5.4-5.1,9.1-5,9.7,0,11.5,6.4,11.5,14.7v17ZM205.3,20.1c-3.1,0-5.6-2.5-5.6-5.6s2.5-5.6,5.6-5.6c3.1,0,5.6,2.5,5.6,5.6,0,3.1-2.5,5.6-5.6,5.6h0M210.1,55.2h-9.6v-30.9h9.6v30.9ZM250.9,0h-55.2c-2.6,0-4.7,2.1-4.8,4.7v55.4c0,2.6,2.2,4.7,4.8,4.7h55.2c2.6,0,4.8-2.1,4.8-4.7V4.7c0-2.6-2.2-4.7-4.8-4.7M164.8,31.7c-4.8,0-7.7,3.2-7.7,7.9s2.9,7.9,7.7,7.9,7.7-3.2,7.7-7.9-2.9-7.9-7.7-7.9M181.3,55.2h-8.8v-4.1h-.1c-2.2,3-5.8,4.8-9.5,4.9-9.2,0-15.3-6.7-15.3-16.1s5.4-16.6,14.2-16.6,7.7,1.1,9.9,4.1h.1V9.6h9.6v45.6ZM135.1,36.1c0-3.2-2.4-5.8-5.6-5.9,0,0-.2,0-.3,0-3.5-.2-6.5,2.4-6.8,5.9h12.7ZM143.3,49.8c-3.2,3.9-8.1,6.2-13.1,6.2-9.6,0-17.3-6.4-17.3-16.3s7.7-16.3,17.3-16.3,14.6,6.4,14.6,16.3v3h-22.3c.6,3.5,3.7,6.1,7.2,6,2.8,0,5.4-1.4,6.9-3.8l6.7,4.9ZM47.8,24.3h9.2v4.2h.1c1.9-3.2,5.4-5.1,9.1-5,9.7,0,11.5,6.4,11.5,14.7v17h-9.6v-15c0-3.6,0-8.2-5-8.2s-5.8,3.9-5.8,7.9v15.3h-9.6v-30.9ZM82.7,9.6h9.6v27.3l10.9-12.6h11.8l-12.6,14.3,12.3,16.6h-12.1l-10.2-15.3h-.1v15.3h-9.6V9.6ZM32.9,24.3h9.6v30.9h-9.6v-30.9ZM37.7,8.9c3.1,0,5.6,2.5,5.6,5.6,0,3.1-2.5,5.6-5.6,5.6-3.1,0-5.6-2.5-5.6-5.6s2.5-5.6,5.6-5.6h0M0,9.6h10v36.4h18.5v9.2H0V9.6ZM263.7,61.1c.7,0,1.2-.5,1.2-1.2,0,0,0,0,0,0,0-.9-.5-1.3-1.7-1.3h-1.8v4.7h.7v-2.1h.9s1.3,2.1,1.3,2.1h.7l-1.4-2.1h0ZM263,60.6h-.8v-1.6h1c.5,0,1.1,0,1.1.8s-.6.8-1.3.8"/>
    </g>
  </g>
</svg>