<svg width="250" height="49" viewBox="0 0 250 49" fill="none" xmlns="http://www.w3.org/2000/svg">
<path d="M0.00527893 36.252V1.401C-0.0117772 1.21441 0.0126167 1.02637 0.0767327 0.850194C0.140849 0.674021 0.243126 0.51403 0.376307 0.381544C0.509488 0.249059 0.670328 0.147315 0.847425 0.0835342C1.02452 0.019753 1.21355 -0.00451358 1.40112 0.0124535H5.87678C6.06435 -0.00451358 6.25339 0.019753 6.43049 0.0835342C6.60759 0.147315 6.76841 0.249059 6.90159 0.381544C7.03477 0.51403 7.13705 0.674021 7.20117 0.850194C7.26528 1.02637 7.28968 1.21441 7.27262 1.401V13.5455C9.30783 11.3478 12.1565 10.5953 14.7771 10.5953C19.601 10.5953 25.1843 13.1991 25.1843 21.3453V36.2072C25.2014 36.3938 25.177 36.5818 25.1128 36.758C25.0487 36.9341 24.9465 37.0941 24.8133 37.2266C24.6801 37.3591 24.5193 37.4609 24.3422 37.5246C24.1651 37.5884 23.976 37.6127 23.7885 37.5957H19.3068C19.1191 37.6132 18.9298 37.5893 18.7525 37.5257C18.5751 37.4621 18.4141 37.3604 18.2808 37.2278C18.1475 37.0952 18.0452 36.935 17.9813 36.7586C17.9174 36.5822 17.8934 36.3939 17.911 36.2072V22.4501C17.911 17.7679 14.609 16.669 12.5618 16.669C10.4605 16.669 7.27262 17.7679 7.27262 22.4501V36.252C7.29022 36.4387 7.26621 36.6269 7.20228 36.8034C7.13836 36.9798 7.0361 37.14 6.9028 37.2726C6.7695 37.4052 6.60842 37.5069 6.43108 37.5705C6.25373 37.6341 6.06447 37.658 5.87678 37.6405H1.40112C1.21355 37.6575 1.02452 37.6332 0.847425 37.5694C0.670328 37.5056 0.509488 37.4039 0.376307 37.2714C0.243126 37.1389 0.140849 36.9789 0.0767327 36.8028C0.0126167 36.6266 -0.0117772 36.4386 0.00527893 36.252Z" fill="white"/>
<path d="M29.2397 27.3115V12.3809C29.2227 12.1944 29.2471 12.0063 29.3112 11.8301C29.3753 11.654 29.4776 11.494 29.6107 11.3615C29.7439 11.229 29.9047 11.1273 30.0818 11.0635C30.2589 10.9997 30.448 10.9754 30.6356 10.9924H35.1112C35.2989 10.9749 35.4882 10.9988 35.6655 11.0624C35.8429 11.126 36.0039 11.2277 36.1372 11.3603C36.2705 11.4929 36.3728 11.6531 36.4367 11.8295C36.5006 12.006 36.5247 12.1942 36.5071 12.3809V26.144C36.5071 30.8262 39.809 31.9251 41.9103 31.9251C44.0115 31.9251 47.1424 30.8262 47.1424 26.144V12.3809C47.1248 12.1942 47.1488 12.006 47.2127 11.8295C47.2767 11.6531 47.3789 11.4929 47.5122 11.3603C47.6455 11.2277 47.8066 11.126 47.9839 11.0624C48.1613 10.9988 48.3505 10.9749 48.5382 10.9924H53.0139C53.2015 10.9754 53.3905 10.9997 53.5676 11.0635C53.7447 11.1273 53.9055 11.229 54.0387 11.3615C54.1719 11.494 54.2741 11.654 54.3383 11.8301C54.4024 12.0063 54.4268 12.1944 54.4097 12.3809V36.2042C54.4268 36.3908 54.4024 36.5788 54.3383 36.755C54.2741 36.9312 54.1719 37.0912 54.0387 37.2236C53.9055 37.3561 53.7447 37.4579 53.5676 37.5216C53.3905 37.5854 53.2015 37.6097 53.0139 37.5927H48.5442C47.6707 37.5927 47.1484 37.1299 47.1484 36.3774V35.165C45.1132 37.3031 42.3245 38.0556 39.707 38.0556C34.8831 38.0616 29.2397 35.4606 29.2397 27.3115Z" fill="white"/>
<path d="M119.861 36.2131V12.3809C119.844 12.1944 119.868 12.0063 119.932 11.8301C119.996 11.654 120.099 11.494 120.232 11.3615C120.365 11.229 120.526 11.1273 120.703 11.0635C120.88 10.9997 121.069 10.9754 121.257 10.9924H125.732C125.92 10.9749 126.109 10.9988 126.287 11.0624C126.464 11.126 126.625 11.2277 126.758 11.3603C126.892 11.4929 126.994 11.6531 127.058 11.8295C127.122 12.006 127.146 12.1942 127.128 12.3809V15.7911C127.989 14.4061 129.152 13.2309 130.53 12.3524C131.908 11.4738 133.467 10.9141 135.092 10.7147C136.022 10.5982 136.545 11.1178 136.545 12.0435V16.033C136.545 16.9019 136.079 17.3648 135.209 17.4245C132.129 17.7231 127.128 18.9175 127.128 25.4034V36.2161C127.146 36.4028 127.122 36.5911 127.058 36.7675C126.994 36.944 126.892 37.1042 126.758 37.2368C126.625 37.3694 126.464 37.4711 126.287 37.5347C126.109 37.5983 125.92 37.6222 125.732 37.6047H121.257C121.069 37.6217 120.879 37.5974 120.702 37.5334C120.525 37.4695 120.364 37.3675 120.231 37.2346C120.097 37.1018 119.995 36.9414 119.931 36.7649C119.867 36.5883 119.843 36.4 119.861 36.2131Z" fill="white"/>
<path d="M136.719 24.3015C136.719 16.2629 142.422 10.4818 150.497 10.4818C158.635 10.4818 164.272 16.2629 164.272 24.3015C164.272 32.2237 158.635 38.181 150.497 38.181C142.407 38.181 136.719 32.2237 136.719 24.3015ZM157.131 24.3015C157.131 20.3121 154.516 17.3618 150.506 17.3618C146.553 17.3618 143.878 20.3121 143.878 24.3015C143.878 28.291 146.553 31.2413 150.506 31.2413C154.507 31.2413 157.116 28.291 157.116 24.3015H157.131Z" fill="white"/>
<path d="M224.815 36.2131V1.401C224.798 1.21441 224.823 1.02637 224.887 0.850194C224.951 0.674021 225.053 0.51403 225.186 0.381544C225.32 0.249059 225.48 0.147315 225.658 0.0835342C225.835 0.019753 226.024 -0.00451358 226.211 0.0124535H230.687C230.874 -0.00451358 231.063 0.019753 231.241 0.0835342C231.418 0.147315 231.579 0.249059 231.712 0.381544C231.845 0.51403 231.947 0.674021 232.011 0.850194C232.075 1.02637 232.1 1.21441 232.083 1.401V13.5455C234.118 11.3478 236.967 10.5953 239.587 10.5953C244.414 10.5953 249.994 13.1991 249.994 21.3453V36.2072C250.012 36.3939 249.988 36.5822 249.924 36.7586C249.86 36.935 249.758 37.0952 249.625 37.2278C249.491 37.3604 249.33 37.4621 249.153 37.5257C248.975 37.5893 248.786 37.6132 248.599 37.5957H244.123C243.935 37.6132 243.746 37.5893 243.569 37.5257C243.391 37.4621 243.23 37.3604 243.097 37.2278C242.964 37.0952 242.861 36.935 242.797 36.7586C242.733 36.5822 242.709 36.3939 242.727 36.2072V22.4501C242.727 17.7679 239.425 16.669 237.378 16.669C235.277 16.669 232.089 17.7679 232.089 22.4501V36.2131C232.106 36.3999 232.082 36.5881 232.018 36.7645C231.954 36.941 231.852 37.1012 231.719 37.2338C231.586 37.3664 231.424 37.4681 231.247 37.5317C231.07 37.5953 230.881 37.6192 230.693 37.6017H226.217C226.029 37.6196 225.839 37.596 225.662 37.5327C225.484 37.4693 225.322 37.3677 225.188 37.2351C225.054 37.1025 224.952 36.9422 224.887 36.7655C224.823 36.5889 224.798 36.4003 224.815 36.2131Z" fill="white"/>
<path d="M82.3954 32.7164C82.981 32.1977 83.6523 31.7835 84.3796 31.4921C85.5336 29.2708 86.1222 26.8018 86.0936 24.3015C86.0936 16.2629 80.7444 10.5953 73.4201 10.5953C70.049 10.5953 67.5486 11.8106 65.7475 13.8352V1.401C65.7645 1.21441 65.7401 1.02637 65.676 0.850194C65.6119 0.674021 65.5096 0.51403 65.3765 0.381544C65.2433 0.249059 65.0825 0.147315 64.9054 0.0835342C64.7283 0.019753 64.5392 -0.00451358 64.3516 0.0124535H59.876C59.6884 -0.00451358 59.4994 0.019753 59.3223 0.0835342C59.1452 0.147315 58.9844 0.249059 58.8512 0.381544C58.718 0.51403 58.6157 0.674021 58.5516 0.850194C58.4875 1.02637 58.4631 1.21441 58.4801 1.401V36.2131C58.4631 36.3997 58.4875 36.5878 58.5516 36.764C58.6157 36.9401 58.718 37.1001 58.8512 37.2326C58.9844 37.3651 59.1452 37.4668 59.3223 37.5306C59.4994 37.5944 59.6884 37.6187 59.876 37.6017H64.3607C64.5483 37.6192 64.7376 37.5953 64.915 37.5317C65.0923 37.4681 65.2534 37.3664 65.3867 37.2338C65.52 37.1012 65.6222 36.941 65.6861 36.7645C65.7501 36.5881 65.7741 36.3999 65.7565 36.2131V34.8276C67.5576 36.8492 70.0581 38.0645 73.4291 38.0645C75.8941 38.0861 78.3085 37.3681 80.3572 36.0041C80.7017 34.7348 81.4099 33.5925 82.3954 32.7164ZM72.3754 31.2413C68.3651 31.2413 65.7475 28.291 65.7475 24.3015C65.7475 20.3121 68.3651 17.3618 72.3754 17.3618C76.3858 17.3618 79.0694 20.3121 79.0694 24.3015C79.0694 28.291 76.3858 31.2413 72.3754 31.2413Z" fill="white"/>
<path d="M86.9581 42.1495C89.3686 42.1495 91.3227 40.2056 91.3227 37.8077C91.3227 35.4098 89.3686 33.4659 86.9581 33.4659C84.5476 33.4659 82.5935 35.4098 82.5935 37.8077C82.5935 40.2056 84.5476 42.1495 86.9581 42.1495Z" fill="white"/>
<path d="M91.1486 45.1775C90.4492 44.5414 90.5663 43.8486 91.2657 43.2096L93.8803 41.0148C94.5197 40.4355 95.159 40.4922 95.8554 41.0148C97.7165 42.5079 99.7578 42.8632 101.496 42.8632C103.996 42.8632 108.529 41.4747 108.529 35.7503V34.7768C106.728 36.8014 104.17 38.0615 100.796 38.0615C93.472 38.0615 88.1889 32.2207 88.1889 24.2985C88.1889 16.3764 93.478 10.5893 100.796 10.5893C104.17 10.5893 106.728 11.8046 108.529 13.874V12.3809C108.511 12.1942 108.535 12.006 108.599 11.8295C108.663 11.6531 108.766 11.4929 108.899 11.3603C109.032 11.2277 109.193 11.126 109.371 11.0624C109.548 10.9988 109.737 10.9749 109.925 10.9924H114.401C114.588 10.9749 114.777 10.9988 114.955 11.0624C115.132 11.126 115.293 11.2277 115.427 11.3603C115.56 11.4929 115.662 11.6531 115.726 11.8295C115.79 12.006 115.814 12.1942 115.796 12.3809V35.7413C115.796 43.3768 110.738 48.928 101.496 48.928C97.2513 48.937 93.6491 47.4917 91.1486 45.1775ZM108.529 24.3015C108.529 20.3121 105.854 17.3618 101.844 17.3618C97.8336 17.3618 95.216 20.3121 95.216 24.3015C95.216 28.291 97.8336 31.2413 101.844 31.2413C105.854 31.2413 108.529 28.291 108.529 24.3015Z" fill="white"/>
<path fill-rule="evenodd" clip-rule="evenodd" d="M209.065 16.4958V29.9095C209.065 34.8276 211.565 37.6017 216.912 37.6017H220.34C220.527 37.6192 220.717 37.5953 220.894 37.5317C221.071 37.4681 221.232 37.3664 221.366 37.2338C221.499 37.1012 221.601 36.941 221.665 36.7645C221.729 36.5881 221.753 36.3999 221.736 36.2131V33.3793C221.753 33.1928 221.728 33.0049 221.664 32.8289C221.6 32.6528 221.498 32.493 221.364 32.3607C221.231 32.2284 221.07 32.127 220.893 32.0636C220.716 32.0002 220.527 31.9763 220.34 31.9938H219.934C218.25 31.9938 216.332 31.8773 216.332 28.7538V16.4958H220.634C220.821 16.5128 221.01 16.4885 221.188 16.4247C221.365 16.361 221.525 16.2592 221.659 16.1267C221.792 15.9943 221.894 15.8343 221.958 15.6581C222.022 15.4819 222.047 15.2939 222.03 15.1073V12.3899C222.047 12.2033 222.022 12.0153 221.958 11.8391C221.894 11.6629 221.792 11.5029 221.659 11.3704C221.525 11.238 221.365 11.1362 221.188 11.0724C221.01 11.0087 220.821 10.9844 220.634 11.0014H216.332V4.23483C216.349 4.04823 216.325 3.86019 216.261 3.68401C216.197 3.50784 216.094 3.34785 215.961 3.21537C215.828 3.08288 215.667 2.98115 215.49 2.91736C215.313 2.85358 215.124 2.82932 214.936 2.84628H210.461C210.273 2.82878 210.084 2.85266 209.906 2.91625C209.729 2.97984 209.568 3.08157 209.435 3.21417C209.301 3.34678 209.199 3.507 209.135 3.68342C209.071 3.85984 209.047 4.04811 209.065 4.23483V10.9924H203.896C203.793 10.9831 203.69 10.9861 203.588 11.0014H200.075C199.261 11.0014 198.736 11.3478 198.505 12.157L193.738 27.3653L188.41 12.0943C188.178 11.3418 187.596 10.9954 186.783 10.9954H183.817C183.003 10.9954 182.424 11.3418 182.19 12.0943L176.841 27.3593L172.017 12.151C171.786 11.3418 171.26 10.9954 170.447 10.9954H165.854C164.867 10.9954 164.392 11.5747 164.692 12.5571L172.425 36.4461C172.641 37.2553 173.164 37.6017 173.971 37.6077H178.624C178.987 37.6314 179.348 37.5292 179.645 37.3186C179.941 37.108 180.155 36.8018 180.251 36.452L185.192 21.9933L190.133 36.452C190.229 36.8015 190.443 37.1074 190.739 37.3179C191.036 37.5284 191.396 37.6308 191.76 37.6077H196.412C196.771 37.6415 197.13 37.5422 197.42 37.3289C197.71 37.1156 197.91 36.8033 197.982 36.452L204.537 16.4958H209.065ZM204.537 16.4958L205.829 12.5631C206.12 11.5807 205.655 11.0014 204.667 11.0014H203.588C203.505 11.0139 203.422 11.0346 203.343 11.0634C203.166 11.1272 203.005 11.229 202.872 11.3615C202.739 11.4941 202.637 11.6542 202.573 11.8303C202.509 12.0065 202.485 12.1945 202.503 12.3809V15.1073C202.486 15.2936 202.51 15.4814 202.574 15.6573C202.638 15.8332 202.74 15.9931 202.873 16.1255C203.006 16.2579 203.166 16.3597 203.343 16.4237C203.52 16.4877 203.709 16.5123 203.896 16.4958H204.537Z" fill="white"/>
<path d="M205.829 12.5631C206.12 11.5807 205.655 11.0014 204.667 11.0014H203.588C203.505 11.0139 203.422 11.0346 203.343 11.0634C203.166 11.1272 203.005 11.229 202.872 11.3615C202.739 11.4941 202.637 11.6542 202.573 11.8303C202.509 12.0065 202.485 12.1945 202.503 12.3809V15.1073C202.486 15.2936 202.51 15.4814 202.574 15.6573C202.638 15.8332 202.74 15.9931 202.873 16.1255C203.006 16.2579 203.166 16.3597 203.343 16.4237C203.52 16.4877 203.709 16.5123 203.896 16.4958H204.537L205.829 12.5631Z" fill="white"/>
</svg>
