<svg width="250" height="49" viewBox="0 0 250 49" fill="none" xmlns="http://www.w3.org/2000/svg">
<path d="M0.00527893 36.2448V1.3938C-0.0117772 1.20721 0.0126167 1.01916 0.0767327 0.842991C0.140849 0.666819 0.243126 0.506828 0.376307 0.374342C0.509488 0.241857 0.670328 0.140113 0.847425 0.076332C1.02452 0.0125508 1.21355 -0.0117157 1.40112 0.00525137H5.87678C6.06435 -0.0117157 6.25339 0.0125508 6.43049 0.076332C6.60759 0.140113 6.76841 0.241857 6.90159 0.374342C7.03477 0.506828 7.13705 0.666819 7.20117 0.842991C7.26528 1.01916 7.28968 1.20721 7.27262 1.3938V13.5383C9.30783 11.3406 12.1565 10.588 14.7771 10.588C19.601 10.588 25.1843 13.1919 25.1843 21.3381V36.2C25.2014 36.3866 25.177 36.5746 25.1128 36.7508C25.0487 36.9269 24.9465 37.0869 24.8133 37.2194C24.6801 37.3519 24.5193 37.4537 24.3422 37.5174C24.1651 37.5812 23.976 37.6055 23.7885 37.5885H19.3068C19.1191 37.606 18.9298 37.5821 18.7525 37.5185C18.5751 37.4549 18.4141 37.3532 18.2808 37.2206C18.1475 37.088 18.0452 36.9278 17.9813 36.7514C17.9174 36.575 17.8934 36.3867 17.911 36.2V22.4429C17.911 17.7607 14.609 16.6618 12.5618 16.6618C10.4605 16.6618 7.27262 17.7607 7.27262 22.4429V36.2448C7.29022 36.4315 7.26621 36.6197 7.20228 36.7962C7.13836 36.9726 7.0361 37.1328 6.9028 37.2654C6.7695 37.398 6.60842 37.4997 6.43108 37.5633C6.25373 37.6269 6.06447 37.6508 5.87678 37.6333H1.40112C1.21355 37.6503 1.02452 37.626 0.847425 37.5622C0.670328 37.4984 0.509488 37.3967 0.376307 37.2642C0.243126 37.1317 0.140849 36.9717 0.0767327 36.7956C0.0126167 36.6194 -0.0117772 36.4314 0.00527893 36.2448Z" fill="#8559CD"/>
<path d="M29.2397 27.3043V12.3737C29.2227 12.1872 29.2471 11.9991 29.3112 11.8229C29.3753 11.6468 29.4776 11.4868 29.6107 11.3543C29.7439 11.2218 29.9047 11.1201 30.0818 11.0563C30.2589 10.9925 30.448 10.9682 30.6356 10.9852H35.1112C35.2989 10.9677 35.4882 10.9916 35.6655 11.0552C35.8429 11.1188 36.0039 11.2205 36.1372 11.3531C36.2705 11.4857 36.3728 11.6459 36.4367 11.8223C36.5006 11.9988 36.5247 12.187 36.5071 12.3737V26.1368C36.5071 30.819 39.809 31.9179 41.9103 31.9179C44.0115 31.9179 47.1424 30.819 47.1424 26.1368V12.3737C47.1248 12.187 47.1488 11.9988 47.2127 11.8223C47.2767 11.6459 47.3789 11.4857 47.5122 11.3531C47.6455 11.2205 47.8066 11.1188 47.9839 11.0552C48.1613 10.9916 48.3505 10.9677 48.5382 10.9852H53.0139C53.2015 10.9682 53.3905 10.9925 53.5676 11.0563C53.7447 11.1201 53.9055 11.2218 54.0387 11.3543C54.1719 11.4868 54.2741 11.6468 54.3383 11.8229C54.4024 11.9991 54.4268 12.1872 54.4097 12.3737V36.197C54.4268 36.3836 54.4024 36.5716 54.3383 36.7478C54.2741 36.924 54.1719 37.084 54.0387 37.2164C53.9055 37.3489 53.7447 37.4507 53.5676 37.5144C53.3905 37.5782 53.2015 37.6025 53.0139 37.5855H48.5442C47.6707 37.5855 47.1484 37.1227 47.1484 36.3702V35.1578C45.1132 37.2959 42.3245 38.0484 39.707 38.0484C34.8831 38.0544 29.2397 35.4534 29.2397 27.3043Z" fill="#8559CD"/>
<path d="M119.861 36.2059V12.3737C119.844 12.1872 119.868 11.9991 119.932 11.8229C119.996 11.6468 120.099 11.4868 120.232 11.3543C120.365 11.2218 120.526 11.1201 120.703 11.0563C120.88 10.9925 121.069 10.9682 121.257 10.9852H125.732C125.92 10.9677 126.109 10.9916 126.287 11.0552C126.464 11.1188 126.625 11.2205 126.758 11.3531C126.892 11.4857 126.994 11.6459 127.058 11.8223C127.122 11.9988 127.146 12.187 127.128 12.3737V15.7839C127.989 14.3989 129.152 13.2237 130.53 12.3452C131.908 11.4666 133.467 10.9069 135.092 10.7075C136.022 10.591 136.545 11.1106 136.545 12.0363V16.0258C136.545 16.8947 136.079 17.3576 135.209 17.4173C132.129 17.7159 127.128 18.9103 127.128 25.3962V36.2089C127.146 36.3956 127.122 36.5839 127.058 36.7603C126.994 36.9367 126.892 37.097 126.758 37.2296C126.625 37.3622 126.464 37.4639 126.287 37.5275C126.109 37.5911 125.92 37.615 125.732 37.5975H121.257C121.069 37.6145 120.879 37.5902 120.702 37.5262C120.525 37.4623 120.364 37.3603 120.231 37.2274C120.097 37.0946 119.995 36.9342 119.931 36.7577C119.867 36.5811 119.843 36.3928 119.861 36.2059Z" fill="#8559CD"/>
<path d="M136.719 24.2943C136.719 16.2557 142.422 10.4746 150.497 10.4746C158.635 10.4746 164.272 16.2557 164.272 24.2943C164.272 32.2165 158.635 38.1738 150.497 38.1738C142.407 38.1738 136.719 32.2165 136.719 24.2943ZM157.131 24.2943C157.131 20.3049 154.516 17.3546 150.506 17.3546C146.553 17.3546 143.878 20.3049 143.878 24.2943C143.878 28.2838 146.553 31.2341 150.506 31.2341C154.507 31.2341 157.116 28.2838 157.116 24.2943H157.131Z" fill="#8559CD"/>
<path d="M224.815 36.2059V1.3938C224.798 1.20721 224.823 1.01916 224.887 0.842991C224.951 0.666819 225.053 0.506828 225.186 0.374342C225.32 0.241857 225.48 0.140113 225.657 0.076332C225.835 0.0125508 226.024 -0.0117157 226.211 0.00525137H230.687C230.874 -0.0117157 231.063 0.0125508 231.241 0.076332C231.418 0.140113 231.578 0.241857 231.712 0.374342C231.845 0.506828 231.947 0.666819 232.011 0.842991C232.075 1.01916 232.1 1.20721 232.083 1.3938V13.5383C234.118 11.3406 236.967 10.588 239.587 10.588C244.414 10.588 249.994 13.1919 249.994 21.3381V36.2C250.012 36.3867 249.988 36.575 249.924 36.7514C249.86 36.9278 249.758 37.088 249.625 37.2206C249.491 37.3532 249.33 37.4549 249.153 37.5185C248.975 37.5821 248.786 37.606 248.599 37.5885H244.123C243.935 37.606 243.746 37.5821 243.569 37.5185C243.391 37.4549 243.23 37.3532 243.097 37.2206C242.964 37.088 242.861 36.9278 242.797 36.7514C242.733 36.575 242.709 36.3867 242.727 36.2V22.4429C242.727 17.7607 239.425 16.6618 237.378 16.6618C235.277 16.6618 232.089 17.7607 232.089 22.4429V36.2059C232.106 36.3927 232.082 36.5809 232.018 36.7573C231.954 36.9338 231.852 37.094 231.719 37.2266C231.586 37.3592 231.425 37.4609 231.247 37.5245C231.07 37.5881 230.881 37.612 230.693 37.5945H226.217C226.029 37.6124 225.839 37.5888 225.662 37.5255C225.484 37.4621 225.322 37.3605 225.188 37.2279C225.054 37.0953 224.952 36.935 224.887 36.7583C224.823 36.5817 224.798 36.3931 224.815 36.2059Z" fill="#8559CD"/>
<path d="M82.3954 32.7092C82.981 32.1905 83.6523 31.7763 84.3796 31.4849C85.5336 29.2636 86.1222 26.7946 86.0936 24.2943C86.0936 16.2557 80.7444 10.588 73.4201 10.588C70.049 10.588 67.5486 11.8034 65.7475 13.828V1.3938C65.7645 1.20721 65.7401 1.01916 65.676 0.842991C65.6119 0.666819 65.5096 0.506828 65.3765 0.374342C65.2433 0.241857 65.0825 0.140113 64.9054 0.076332C64.7283 0.0125508 64.5392 -0.0117157 64.3516 0.00525137H59.876C59.6884 -0.0117157 59.4994 0.0125508 59.3223 0.076332C59.1452 0.140113 58.9844 0.241857 58.8512 0.374342C58.718 0.506828 58.6157 0.666819 58.5516 0.842991C58.4875 1.01916 58.4631 1.20721 58.4801 1.3938V36.2059C58.4631 36.3925 58.4875 36.5806 58.5516 36.7568C58.6157 36.9329 58.718 37.0929 58.8512 37.2254C58.9844 37.3579 59.1452 37.4596 59.3223 37.5234C59.4994 37.5872 59.6884 37.6114 59.876 37.5945H64.3607C64.5483 37.612 64.7376 37.5881 64.915 37.5245C65.0923 37.4609 65.2534 37.3592 65.3867 37.2266C65.52 37.094 65.6222 36.9338 65.6861 36.7573C65.7501 36.5809 65.7741 36.3927 65.7565 36.2059V34.8204C67.5576 36.842 70.0581 38.0573 73.4291 38.0573C75.8941 38.0789 78.3085 37.3609 80.3572 35.9969C80.7017 34.7276 81.4099 33.5853 82.3954 32.7092ZM72.3754 31.2341C68.365 31.2341 65.7475 28.2838 65.7475 24.2943C65.7475 20.3049 68.365 17.3546 72.3754 17.3546C76.3858 17.3546 79.0694 20.3049 79.0694 24.2943C79.0694 28.2838 76.3858 31.2341 72.3754 31.2341Z" fill="#8559CD"/>
<path d="M86.9581 42.1423C89.3686 42.1423 91.3227 40.1984 91.3227 37.8005C91.3227 35.4026 89.3686 33.4587 86.9581 33.4587C84.5476 33.4587 82.5935 35.4026 82.5935 37.8005C82.5935 40.1984 84.5476 42.1423 86.9581 42.1423Z" fill="#F6A900"/>
<path d="M91.1486 45.1703C90.4492 44.5342 90.5663 43.8414 91.2657 43.2024L93.8803 41.0076C94.5197 40.4283 95.159 40.485 95.8554 41.0076C97.7165 42.5007 99.7578 42.856 101.496 42.856C103.996 42.856 108.529 41.4675 108.529 35.7431V34.7696C106.728 36.7942 104.17 38.0543 100.796 38.0543C93.472 38.0543 88.1889 32.2135 88.1889 24.2913C88.1889 16.3692 93.478 10.5821 100.796 10.5821C104.17 10.5821 106.728 11.7974 108.529 13.8668V12.3737C108.511 12.187 108.535 11.9988 108.599 11.8223C108.663 11.6459 108.766 11.4857 108.899 11.3531C109.032 11.2205 109.193 11.1188 109.371 11.0552C109.548 10.9916 109.737 10.9677 109.925 10.9852H114.401C114.588 10.9677 114.777 10.9916 114.955 11.0552C115.132 11.1188 115.293 11.2205 115.427 11.3531C115.56 11.4857 115.662 11.6459 115.726 11.8223C115.79 11.9988 115.814 12.187 115.796 12.3737V35.7341C115.796 43.3696 110.738 48.9208 101.496 48.9208C97.2513 48.9298 93.6491 47.4845 91.1486 45.1703ZM108.529 24.2943C108.529 20.3049 105.854 17.3546 101.844 17.3546C97.8336 17.3546 95.2161 20.3049 95.2161 24.2943C95.2161 28.2838 97.8336 31.2341 101.844 31.2341C105.854 31.2341 108.529 28.2838 108.529 24.2943Z" fill="#8559CD"/>
<path fill-rule="evenodd" clip-rule="evenodd" d="M209.065 16.4886V29.9023C209.065 34.8204 211.565 37.5945 216.912 37.5945H220.34C220.527 37.612 220.717 37.5881 220.894 37.5245C221.071 37.4609 221.232 37.3592 221.366 37.2266C221.499 37.094 221.601 36.9338 221.665 36.7573C221.729 36.5809 221.753 36.3927 221.736 36.2059V33.3721C221.753 33.1856 221.728 32.9977 221.664 32.8217C221.6 32.6456 221.498 32.4858 221.364 32.3535C221.231 32.2212 221.07 32.1198 220.893 32.0564C220.716 31.993 220.527 31.9691 220.34 31.9866H219.934C218.25 31.9866 216.332 31.8701 216.332 28.7466V16.4886H220.634C220.821 16.5056 221.01 16.4813 221.188 16.4175C221.365 16.3538 221.525 16.252 221.659 16.1195C221.792 15.987 221.894 15.827 221.958 15.6509C222.022 15.4747 222.047 15.2867 222.03 15.1001V12.3827C222.047 12.1961 222.022 12.0081 221.958 11.8319C221.894 11.6557 221.792 11.4957 221.659 11.3632C221.525 11.2308 221.365 11.129 221.188 11.0652C221.01 11.0015 220.821 10.9772 220.634 10.9942H216.332V4.22762C216.349 4.04103 216.325 3.85299 216.261 3.67681C216.197 3.50064 216.094 3.34065 215.961 3.20816C215.828 3.07568 215.667 2.97394 215.49 2.91016C215.313 2.84638 215.124 2.82211 214.936 2.83908H210.461C210.273 2.82157 210.084 2.84546 209.906 2.90905C209.729 2.97264 209.568 3.07437 209.435 3.20697C209.301 3.33957 209.199 3.4998 209.135 3.67622C209.071 3.85264 209.047 4.04091 209.065 4.22762V10.9852H203.896C203.793 10.9759 203.69 10.9789 203.588 10.9942H200.075C199.261 10.9942 198.736 11.3405 198.505 12.1498L193.738 27.3581L188.41 12.0871C188.178 11.3346 187.596 10.9882 186.783 10.9882H183.817C183.003 10.9882 182.424 11.3346 182.19 12.0871L176.841 27.3521L172.017 12.1438C171.786 11.3346 171.26 10.9882 170.447 10.9882H165.854C164.867 10.9882 164.392 11.5675 164.692 12.5499L172.425 36.4389C172.641 37.2481 173.164 37.5945 173.971 37.6005H178.624C178.987 37.6242 179.348 37.522 179.645 37.3114C179.941 37.1008 180.155 36.7946 180.251 36.4448L185.192 21.9861L190.133 36.4448C190.229 36.7943 190.443 37.1002 190.739 37.3107C191.036 37.5212 191.396 37.6236 191.76 37.6005H196.412C196.771 37.6343 197.13 37.535 197.42 37.3217C197.71 37.1084 197.91 36.7961 197.982 36.4448L204.537 16.4886H209.065ZM204.537 16.4886L205.829 12.5559C206.12 11.5735 205.655 10.9942 204.667 10.9942H203.588C203.505 11.0067 203.422 11.0274 203.343 11.0562C203.166 11.12 203.005 11.2218 202.872 11.3543C202.739 11.4869 202.637 11.647 202.573 11.8231C202.509 11.9993 202.485 12.1873 202.503 12.3737V15.1001C202.486 15.2864 202.51 15.4742 202.574 15.6501C202.638 15.826 202.74 15.9859 202.873 16.1183C203.006 16.2507 203.166 16.3525 203.343 16.4165C203.52 16.4805 203.709 16.5051 203.896 16.4886H204.537Z" fill="#8559CD"/>
<path d="M205.829 12.5559C206.12 11.5735 205.655 10.9942 204.667 10.9942H203.588C203.505 11.0067 203.422 11.0274 203.343 11.0562C203.166 11.12 203.005 11.2218 202.872 11.3543C202.739 11.4869 202.637 11.647 202.573 11.8231C202.509 11.9993 202.485 12.1873 202.503 12.3737V15.1001C202.486 15.2864 202.51 15.4742 202.574 15.6501C202.638 15.826 202.74 15.9859 202.873 16.1183C203.006 16.2507 203.166 16.3525 203.343 16.4165C203.52 16.4805 203.709 16.5051 203.896 16.4886H204.537L205.829 12.5559Z" fill="#8559CD"/>
</svg>
