<?xml version="1.0" encoding="UTF-8"?>
<svg id="Layer_2" xmlns="http://www.w3.org/2000/svg" viewBox="0 0 362.03 101">
  <defs>
    <style>
      .cls-1 {
        fill: #f6a900;
      }

      .cls-2 {
        fill: #fff;
      }
    </style>
  </defs>
  <g id="Layer_1-2" data-name="Layer_1">
    <g>
      <g>
        <path class="cls-2" d="M206.97,17.46c0,4.68-3.21,8.13-7.69,8.13-2.67,0-4.65-1.23-5.84-3.11v2.05c0,.51-.27.79-.79.79h-.89c-.51,0-.79-.27-.79-.79V3.89c0-.51.27-.79.79-.79h.89c.51,0,.79.27.79.79v8.54c1.2-1.88,3.18-3.07,5.84-3.07,4.48,0,7.69,3.38,7.69,8.1ZM204.54,17.46c0-3.35-2.22-5.74-5.57-5.74s-5.53,2.39-5.53,5.74,2.19,5.77,5.53,5.77,5.57-2.43,5.57-5.77Z"/>
        <path class="cls-2" d="M222.85,9.6h.89c.51,0,.79.27.79.79v14.14c0,.51-.27.79-.79.79h-.89c-.51,0-.79-.27-.79-.79v-1.3c-1.2,1.64-3.11,2.36-5.06,2.36-3.14,0-6.25-1.84-6.25-6.29v-8.92c0-.51.27-.79.79-.79h.89c.51,0,.79.27.79.79v8.61c0,3.01,2.12,4.48,4.44,4.48s4.41-1.47,4.41-4.48v-8.61c0-.51.27-.79.79-.79Z"/>
        <path class="cls-2" d="M228.83,4.71c0-.92.75-1.47,1.5-1.47s1.5.55,1.5,1.47-.75,1.54-1.5,1.54-1.5-.61-1.5-1.54ZM230.78,25.31h-.89c-.51,0-.79-.27-.79-.79v-14.14c0-.51.27-.79.79-.79h.92c.51,0,.79.27.79.79l-.03,14.14c0,.51-.27.79-.79.79Z"/>
        <path class="cls-2" d="M237.82,25.31h-.89c-.51,0-.79-.27-.79-.79V3.89c0-.51.27-.79.79-.79h.89c.51,0,.79.27.79.79v20.63c0,.51-.27.79-.79.79Z"/>
        <path class="cls-2" d="M256.71,3.11h.92c.51,0,.79.27.79.79v20.63c0,.51-.27.79-.79.79h-.92c-.51,0-.79-.27-.79-.79v-2.05c-1.2,1.88-3.18,3.11-5.84,3.11-4.48,0-7.65-3.45-7.65-8.13s3.18-8.1,7.65-8.1c2.66,0,4.65,1.2,5.84,3.07V3.89c0-.51.27-.79.79-.79ZM255.92,17.46c0-3.35-2.15-5.74-5.53-5.74s-5.57,2.39-5.57,5.74,2.22,5.77,5.57,5.77,5.53-2.43,5.53-5.77Z"/>
        <path class="cls-2" d="M262.68,4.71c0-.92.75-1.47,1.5-1.47s1.5.55,1.5,1.47-.75,1.54-1.5,1.54-1.5-.61-1.5-1.54ZM264.63,25.31h-.89c-.51,0-.79-.27-.79-.79v-14.14c0-.51.27-.79.79-.79h.92c.51,0,.79.27.79.79l-.03,14.14c0,.51-.27.79-.79.79Z"/>
        <path class="cls-2" d="M283.76,15.65v8.88c0,.51-.27.79-.79.79h-.89c-.51,0-.79-.27-.79-.79v-8.54c0-3.01-2.12-4.48-4.44-4.48s-4.41,1.47-4.41,4.48v8.54c0,.51-.27.79-.79.79h-.89c-.51,0-.79-.27-.79-.79v-14.14c0-.51.27-.79.79-.79h.89c.51,0,.79.27.79.79v1.33c1.2-1.64,3.11-2.36,5.06-2.36,3.14,0,6.25,1.84,6.25,6.29Z"/>
        <path class="cls-2" d="M301.87,9.6h.92c.51,0,.79.27.79.79v13.77c0,4.51-3.21,7.65-8.27,7.65-2.39,0-4.51-.82-5.94-2.19-.38-.34-.31-.75.07-1.09l.48-.41c.38-.34.75-.27,1.13.03,1.2,1.06,2.7,1.5,4.27,1.5,2.9,0,5.77-1.74,5.77-5.5v-1.67c-1.2,1.88-3.18,3.11-5.84,3.11-4.48,0-7.65-3.45-7.65-8.13s3.18-8.1,7.65-8.1c2.66,0,4.65,1.2,5.84,3.07v-2.05c0-.51.27-.79.79-.79ZM301.08,17.46c0-3.35-2.19-5.74-5.53-5.74s-5.57,2.39-5.57,5.74,2.22,5.77,5.57,5.77,5.53-2.43,5.53-5.77Z"/>
      </g>
      <g>
        <path class="cls-2" d="M198.59,79.56h-2.97v9.65c0,1.67,1.02,2.08,2.18,2.08h.61c.51,0,.78.27.78.78v.44c0,.51-.27.78-.78.78h-1.5c-2.39,0-3.78-1.36-3.78-3.75v-9.99h-1.4c-.51,0-.78-.27-.78-.78v-.38c0-.51.27-.78.78-.78h1.4v-3.99c0-.51.27-.78.78-.78h.92c.51,0,.78.27.78.78v3.99h2.97c.51,0,.78.27.78.78v.38c0,.51-.27.78-.78.78Z"/>
        <path class="cls-2" d="M201.49,85.45c0-4.71,3.27-8.11,7.98-8.11s7.98,3.41,7.98,8.11-3.27,8.15-7.98,8.15-7.98-3.48-7.98-8.15ZM214.95,85.45c0-3.31-2.18-5.73-5.49-5.73s-5.52,2.42-5.52,5.73,2.22,5.76,5.52,5.76,5.49-2.46,5.49-5.76Z"/>
        <path class="cls-2" d="M235,77.61h.92c.51,0,.78.27.78.78v13.74c0,4.5-3.2,7.64-8.25,7.64-2.39,0-4.5-.82-5.93-2.18-.38-.34-.31-.75.07-1.09l.48-.41c.38-.34.75-.27,1.12.03,1.19,1.06,2.69,1.5,4.26,1.5,2.9,0,5.76-1.74,5.76-5.49v-1.67c-1.19,1.88-3.17,3.1-5.83,3.1-4.47,0-7.64-3.44-7.64-8.11s3.17-8.08,7.64-8.08c2.66,0,4.64,1.19,5.83,3.07v-2.04c0-.51.27-.78.78-.78ZM234.22,85.45c0-3.34-2.18-5.73-5.52-5.73s-5.56,2.39-5.56,5.73,2.22,5.76,5.56,5.76,5.52-2.42,5.52-5.76Z"/>
        <path class="cls-2" d="M255.73,85.45c0,.51-.27.78-.78.78h-12.07c.31,3.14,2.45,5.22,5.56,5.22,1.94,0,3.41-.75,4.33-1.77.34-.38.68-.44,1.09-.17l.48.34c.41.31.51.72.17,1.09-1.4,1.67-3.51,2.66-6.07,2.66-4.77,0-7.94-3.48-7.94-8.15s3.03-8.11,7.74-8.11,7.5,3.44,7.5,8.11ZM242.88,84.53h10.57c-.34-2.97-2.28-5.15-5.22-5.15s-5.01,2.08-5.35,5.15Z"/>
        <path class="cls-2" d="M265.82,79.56h-2.97v9.65c0,1.67,1.02,2.08,2.18,2.08h.61c.51,0,.78.27.78.78v.44c0,.51-.27.78-.78.78h-1.5c-2.39,0-3.78-1.36-3.78-3.75v-9.99h-1.4c-.51,0-.78-.27-.78-.78v-.38c0-.51.27-.78.78-.78h1.4v-3.99c0-.51.27-.78.78-.78h.92c.51,0,.78.27.78.78v3.99h2.97c.51,0,.78.27.78.78v.38c0,.51-.27.78-.78.78Z"/>
        <path class="cls-2" d="M283.71,83.65v8.86c0,.51-.27.78-.78.78h-.89c-.51,0-.78-.27-.78-.78v-8.52c0-3-2.11-4.47-4.43-4.47s-4.4,1.47-4.4,4.47v8.52c0,.51-.27.78-.78.78h-.89c-.51,0-.78-.27-.78-.78v-20.59c0-.51.27-.78.78-.78h.89c.51,0,.78.27.78.78v7.81c1.19-1.64,3.1-2.35,5.04-2.35,3.14,0,6.24,1.84,6.24,6.27Z"/>
        <path class="cls-2" d="M302.77,85.45c0,.51-.27.78-.78.78h-12.07c.31,3.14,2.45,5.22,5.56,5.22,1.94,0,3.41-.75,4.33-1.77.34-.38.68-.44,1.09-.17l.48.34c.41.31.51.72.17,1.09-1.4,1.67-3.51,2.66-6.07,2.66-4.77,0-7.94-3.48-7.94-8.15s3.03-8.11,7.74-8.11,7.5,3.44,7.5,8.11ZM289.92,84.53h10.57c-.34-2.97-2.28-5.15-5.22-5.15s-5.01,2.08-5.35,5.15Z"/>
        <path class="cls-2" d="M313.75,77.44c.51-.07.82.24.82.75v.78c0,.48-.27.75-.75.78-2.25.27-4.77,1.64-4.77,5.08v7.67c0,.51-.27.78-.78.78h-.89c-.51,0-.78-.27-.78-.78v-14.11c0-.51.27-.78.78-.78h.89c.51,0,.78.27.78.78v2.11c1.06-1.88,2.79-2.86,4.7-3.07Z"/>
      </g>
      <g>
        <path class="cls-2" d="M255.93,42.33c-3.72-.61-8.72,3.31-10.41,5.47l.07-2.64c0-.41-.41-1.08-1.01-1.42-.68-.34-1.35-.34-1.35.13-.15,1.37-.27,2.55-.37,3.6-2.32,2.21-6.03,5.14-10.24,5.32-1.89-.2-2.36-1.82-2.64-3.45,0-1.22.07-2.3.14-2.77.13-1.01-2.23-2.23-2.43-1.28-.54,2.43-5.07,9.59-7.84,7.7-.74-.47-1.01-1.55-1.01-2.77,0-1.76.61-3.72,1.55-4.32.34-.2.47-.61-.07-1.15-.54-.61-1.28-.95-1.82-.81-.61.2-1.01.81-1.35,1.49-.24.42-.4.88-.52,1.35-2.63,2.08-7.67,4.94-11.57,5.74.95-1.15,1.89-2.77,2.03-4.32.47-3.78-3.78-5.2-6.49-4.46-1.96.54-4.05,1.96-5.81,4.66.2-4.59.34-7.77.47-9.46.07-.47-.41-1.08-1.08-1.42-.61-.34-1.22-.34-1.28.14-.54,3.78-.68,8.34-.68,23.68.2,3.65.34,3.57.61,6.41.14,1.28,2.36,1.96,2.43.81-.47-3.38-.47-3.23-.61-7.28.2-7.03.34-4.55,1.08-7.66l.54.34c1.22.74,3.99,1.42,6.22.81h.34c5.05.2,10.16-2.41,13.61-5.84.03.77.14,1.54.38,2.26.74,2.3,3.04,4.05,5.27,4.05,2.77,0,4.73-2.36,6.08-4.32.95,2.23,3.04,3.85,5.68,3.85,4.02.23,7.13-2.45,8.78-4.53-.23,3.18-.11,4.12.07,4.53.27,1.01,2.5,1.89,2.43,1.01.27-1.96.27-2.36.47-2.91,1.62-4.66,7.23-8.78,10.61-8.72l-.07.54c-.07.54.88.95,1.82-.13.47-.54-.47-1.96-2.03-2.23ZM200.93,52.73c-1.08-.13-4.32-.27-5.07-.68v-.2c.41-1.89,5.2-7.91,8.24-6.15,2.16,1.28-.81,6.35-3.18,7.03Z"/>
        <path class="cls-2" d="M314.31,40.37c-3.21.44-9.81,2.35-10.27,5.5-1.08.07-3.26.24-5.81.24-1.55,0-3.31-.07-5-.27-1.01-1.22-2.5-2.09-4.32-2.36-1.35-.07-1.82.68-2.09,1.62-.13,0-.2.07-.34.07-.92.32-1.9,1.58-2.46,3.14-2.74,1.76-6.42,3.6-9.43,4.23.95-1.15,1.89-2.77,2.03-4.32.47-3.78-3.78-5.2-6.49-4.46-1.96.54-4.05,1.96-5.81,4.66.2-4.59.34-7.77.47-9.46.07-.47-.41-1.08-1.08-1.42-.61-.34-1.22-.34-1.28.14-.54,3.78-.68,7.34-.68,22.68.2,3.65.34,4.57.61,7.41.14,1.28,2.36,1.96,2.43.81-.47-3.38-.47-4.23-.61-8.28.2-7.03.34-3.55,1.08-6.66l.54.34c1.22.74,3.99,1.42,6.22.81h.34c3.98.16,8-1.44,11.21-3.8,0,.28.03.55.07.82.34,1.89,2.03,3.99,4.53,4.12,3.11.2,5.88-1.49,6.49-4.87.2-1.01.14-2.03-.13-2.91,3.88.19,7.99-.34,9.7-.85.57,1.5,2.21,2.13,3.74,3.01,1.35.74,3.92,2.03,5.61,2.91-1.76.41-4.46.74-6.62.74-.88,0-1.62-.07-2.23-.2-1.49-.34-.88,1.35-.07,1.76,1.01.41,2.64.61,4.32.61s3.51-.2,4.73-.54c1.76-.47,3.04-2.36,1.55-3.65-1.35-1.08-3.38-2.09-5.95-3.51-1.35-.81-2.91-1.49-2.5-2.43.74-1.76,6.89-2.91,9.39-3.78.54-.68-.81-1.96-1.89-1.82ZM270.46,52.73c-1.08-.13-4.32-.27-5.07-.68v-.2c.41-1.89,5.2-7.91,8.24-6.15,2.16,1.28-.81,6.35-3.18,7.03ZM288.37,54.22c-1.28.07-2.03-.68-2.36-2.64-.34-1.89.95-4.26,1.82-4.93l.13-.13c.95.61,2.23,1.01,3.78,1.28,1.08,2.43-.41,6.28-3.38,6.42Z"/>
        <path class="cls-2" d="M361.14,44.76c-1.82,1.42-20.95,9.53-29.6,9.53-3.24,0-6.42-1.42-6.62-4.93,3.78.27,6.82-2.5,6.62-4.93-.07-.81-.68-1.49-1.62-1.96-.68-.27-1.28-.34-1.96-.34-2.84,0-5.2,2.16-5.61,5.54-.68,6.28,5.47,8.45,11.01,8.31,10.68-.27,27.77-7.23,28.65-10.81.14-.54-.54-.68-.88-.41ZM329.58,44.36c-.27,1.42-3.04,3.78-4.53,3.24.27-1.69,1.69-3.58,4.53-3.24Z"/>
      </g>
      <g>
        <path class="cls-2" d="M44.98,77.29c.14-2.4.91-4.73,2.25-6.73,1.34-2,3.18-3.61,5.35-4.66v-21.77c0-16.81-11.92-22.15-21.82-22.15-5.37,0-11.21,1.55-15.38,6.08V3.02c0-1.79-1.07-2.86-2.86-2.86H2.86C1.07.16,0,1.23,0,3.02v71.84c0,1.79,1.07,2.86,2.86,2.86h9.66c1.79,0,2.86-1.07,2.86-2.86v-28.45c0-9.66,6.55-11.92,10.85-11.92s10.97,2.26,10.97,11.92v28.37c0,1.79,1.07,2.86,2.89,2.86h4.89c0-.09,0-.23,0-.35Z"/>
        <path class="cls-1" d="M58.47,87.01c4.94,0,8.95-4.01,8.95-8.95s-4.01-8.95-8.95-8.95-8.95,4.01-8.95,8.95,4.01,8.95,8.95,8.95Z"/>
        <path class="cls-2" d="M67.05,93.25c-1.44-1.31-1.19-2.74.24-4.06l5.37-4.53c1.31-1.19,2.62-1.07,4.05,0,3.81,3.1,7.99,3.81,11.56,3.81,5.13,0,14.42-2.86,14.42-14.66v-2.03c-3.69,4.17-8.94,6.79-15.85,6.79-15.02,0-25.87-12.04-25.87-28.37s10.85-28.25,25.87-28.25c6.92,0,12.16,2.5,15.85,6.8v-3.1c0-1.79,1.07-2.86,2.86-2.86h9.18c1.79,0,2.86,1.07,2.86,2.86v48.16c0,15.73-10.37,27.18-29.33,27.18-8.7,0-16.09-2.98-21.21-7.75ZM102.91,50.22c0-8.35-5.57-14.53-13.92-14.53s-13.82,6.17-13.82,14.53,5.45,14.52,13.8,14.52,13.94-6.17,13.94-14.52Z"/>
      </g>
      <rect class="cls-2" x="152.53" width="2" height="93" rx=".5" ry=".5"/>
    </g>
  </g>
</svg>